<?xml version="1.0" encoding="utf-8" standalone="no"?>
<!DOCTYPE svg PUBLIC "-//W3C//DTD SVG 1.1//EN"
  "http://www.w3.org/Graphics/SVG/1.1/DTD/svg11.dtd">
<!-- Created with matplotlib (http://matplotlib.org/) -->
<svg height="345pt" version="1.1" viewBox="0 0 460 345" width="460pt" xmlns="http://www.w3.org/2000/svg" xmlns:xlink="http://www.w3.org/1999/xlink">
 <defs>
  <style type="text/css">
*{stroke-linecap:butt;stroke-linejoin:round;}
  </style>
 </defs>
 <g id="figure_1">
  <g id="patch_1">
   <path d="M 0 345.6 
L 460.8 345.6 
L 460.8 0 
L 0 0 
z
" style="fill:#ffffff;"/>
  </g>
  <g id="axes_1">
   <g id="patch_2">
    <path d="M 51.05 303.64 
L 447.48 303.64 
L 447.48 13.32 
L 51.05 13.32 
z
" style="fill:#ffffff;"/>
   </g>
   <g id="matplotlib.axis_1">
    <g id="xtick_1">
     <g id="line2d_1">
      <defs>
       <path d="M 0 0 
L 0 3.5 
" id="m1e3b8bf7fa" style="stroke:#000000;stroke-width:0.8;"/>
      </defs>
      <g>
       <use style="stroke:#000000;stroke-width:0.8;" x="100.60375" xlink:href="#m1e3b8bf7fa" y="303.64"/>
      </g>
     </g>
     <g id="text_1">
      <!-- 5% -->
      <defs>
       <path d="M 10.796875 72.90625 
L 49.515625 72.90625 
L 49.515625 64.59375 
L 19.828125 64.59375 
L 19.828125 46.734375 
Q 21.96875 47.46875 24.109375 47.828125 
Q 26.265625 48.1875 28.421875 48.1875 
Q 40.625 48.1875 47.75 41.5 
Q 54.890625 34.8125 54.890625 23.390625 
Q 54.890625 11.625 47.5625 5.09375 
Q 40.234375 -1.421875 26.90625 -1.421875 
Q 22.3125 -1.421875 17.546875 -0.640625 
Q 12.796875 0.140625 7.71875 1.703125 
L 7.71875 11.625 
Q 12.109375 9.234375 16.796875 8.0625 
Q 21.484375 6.890625 26.703125 6.890625 
Q 35.15625 6.890625 40.078125 11.328125 
Q 45.015625 15.765625 45.015625 23.390625 
Q 45.015625 31 40.078125 35.4375 
Q 35.15625 39.890625 26.703125 39.890625 
Q 22.75 39.890625 18.8125 39.015625 
Q 14.890625 38.140625 10.796875 36.28125 
z
" id="DejaVuSans-35"/>
       <path d="M 72.703125 32.078125 
Q 68.453125 32.078125 66.03125 28.46875 
Q 63.625 24.859375 63.625 18.40625 
Q 63.625 12.0625 66.03125 8.421875 
Q 68.453125 4.78125 72.703125 4.78125 
Q 76.859375 4.78125 79.265625 8.421875 
Q 81.6875 12.0625 81.6875 18.40625 
Q 81.6875 24.8125 79.265625 28.4375 
Q 76.859375 32.078125 72.703125 32.078125 
z
M 72.703125 38.28125 
Q 80.421875 38.28125 84.953125 32.90625 
Q 89.5 27.546875 89.5 18.40625 
Q 89.5 9.28125 84.9375 3.921875 
Q 80.375 -1.421875 72.703125 -1.421875 
Q 64.890625 -1.421875 60.34375 3.921875 
Q 55.8125 9.28125 55.8125 18.40625 
Q 55.8125 27.59375 60.375 32.9375 
Q 64.9375 38.28125 72.703125 38.28125 
z
M 22.3125 68.015625 
Q 18.109375 68.015625 15.6875 64.375 
Q 13.28125 60.75 13.28125 54.390625 
Q 13.28125 47.953125 15.671875 44.328125 
Q 18.0625 40.71875 22.3125 40.71875 
Q 26.5625 40.71875 28.96875 44.328125 
Q 31.390625 47.953125 31.390625 54.390625 
Q 31.390625 60.6875 28.953125 64.34375 
Q 26.515625 68.015625 22.3125 68.015625 
z
M 66.40625 74.21875 
L 74.21875 74.21875 
L 28.609375 -1.421875 
L 20.796875 -1.421875 
z
M 22.3125 74.21875 
Q 30.03125 74.21875 34.609375 68.875 
Q 39.203125 63.53125 39.203125 54.390625 
Q 39.203125 45.171875 34.640625 39.84375 
Q 30.078125 34.515625 22.3125 34.515625 
Q 14.546875 34.515625 10.03125 39.859375 
Q 5.515625 45.21875 5.515625 54.390625 
Q 5.515625 63.484375 10.046875 68.84375 
Q 14.59375 74.21875 22.3125 74.21875 
z
" id="DejaVuSans-25"/>
      </defs>
      <g transform="translate(92.671719 318.238437)scale(0.1 -0.1)">
       <use xlink:href="#DejaVuSans-35"/>
       <use x="63.623047" xlink:href="#DejaVuSans-25"/>
      </g>
     </g>
    </g>
    <g id="xtick_2">
     <g id="line2d_2">
      <g>
       <use style="stroke:#000000;stroke-width:0.8;" x="199.71125" xlink:href="#m1e3b8bf7fa" y="303.64"/>
      </g>
     </g>
     <g id="text_2">
      <!-- 10% -->
      <defs>
       <path d="M 12.40625 8.296875 
L 28.515625 8.296875 
L 28.515625 63.921875 
L 10.984375 60.40625 
L 10.984375 69.390625 
L 28.421875 72.90625 
L 38.28125 72.90625 
L 38.28125 8.296875 
L 54.390625 8.296875 
L 54.390625 0 
L 12.40625 0 
z
" id="DejaVuSans-31"/>
       <path d="M 31.78125 66.40625 
Q 24.171875 66.40625 20.328125 58.90625 
Q 16.5 51.421875 16.5 36.375 
Q 16.5 21.390625 20.328125 13.890625 
Q 24.171875 6.390625 31.78125 6.390625 
Q 39.453125 6.390625 43.28125 13.890625 
Q 47.125 21.390625 47.125 36.375 
Q 47.125 51.421875 43.28125 58.90625 
Q 39.453125 66.40625 31.78125 66.40625 
z
M 31.78125 74.21875 
Q 44.046875 74.21875 50.515625 64.515625 
Q 56.984375 54.828125 56.984375 36.375 
Q 56.984375 17.96875 50.515625 8.265625 
Q 44.046875 -1.421875 31.78125 -1.421875 
Q 19.53125 -1.421875 13.0625 8.265625 
Q 6.59375 17.96875 6.59375 36.375 
Q 6.59375 54.828125 13.0625 64.515625 
Q 19.53125 74.21875 31.78125 74.21875 
z
" id="DejaVuSans-30"/>
      </defs>
      <g transform="translate(188.597969 318.238437)scale(0.1 -0.1)">
       <use xlink:href="#DejaVuSans-31"/>
       <use x="63.623047" xlink:href="#DejaVuSans-30"/>
       <use x="127.246094" xlink:href="#DejaVuSans-25"/>
      </g>
     </g>
    </g>
    <g id="xtick_3">
     <g id="line2d_3">
      <g>
       <use style="stroke:#000000;stroke-width:0.8;" x="298.81875" xlink:href="#m1e3b8bf7fa" y="303.64"/>
      </g>
     </g>
     <g id="text_3">
      <!-- 15% -->
      <g transform="translate(287.705469 318.238437)scale(0.1 -0.1)">
       <use xlink:href="#DejaVuSans-31"/>
       <use x="63.623047" xlink:href="#DejaVuSans-35"/>
       <use x="127.246094" xlink:href="#DejaVuSans-25"/>
      </g>
     </g>
    </g>
    <g id="xtick_4">
     <g id="line2d_4">
      <g>
       <use style="stroke:#000000;stroke-width:0.8;" x="397.92625" xlink:href="#m1e3b8bf7fa" y="303.64"/>
      </g>
     </g>
     <g id="text_4">
      <!-- 20% -->
      <defs>
       <path d="M 19.1875 8.296875 
L 53.609375 8.296875 
L 53.609375 0 
L 7.328125 0 
L 7.328125 8.296875 
Q 12.9375 14.109375 22.625 23.890625 
Q 32.328125 33.6875 34.8125 36.53125 
Q 39.546875 41.84375 41.421875 45.53125 
Q 43.3125 49.21875 43.3125 52.78125 
Q 43.3125 58.59375 39.234375 62.25 
Q 35.15625 65.921875 28.609375 65.921875 
Q 23.96875 65.921875 18.8125 64.3125 
Q 13.671875 62.703125 7.8125 59.421875 
L 7.8125 69.390625 
Q 13.765625 71.78125 18.9375 73 
Q 24.125 74.21875 28.421875 74.21875 
Q 39.75 74.21875 46.484375 68.546875 
Q 53.21875 62.890625 53.21875 53.421875 
Q 53.21875 48.921875 51.53125 44.890625 
Q 49.859375 40.875 45.40625 35.40625 
Q 44.1875 33.984375 37.640625 27.21875 
Q 31.109375 20.453125 19.1875 8.296875 
z
" id="DejaVuSans-32"/>
      </defs>
      <g transform="translate(386.812969 318.238437)scale(0.1 -0.1)">
       <use xlink:href="#DejaVuSans-32"/>
       <use x="63.623047" xlink:href="#DejaVuSans-30"/>
       <use x="127.246094" xlink:href="#DejaVuSans-25"/>
      </g>
     </g>
    </g>
    <g id="text_5">
     <!-- Loss rate -->
     <defs>
      <path d="M 9.8125 72.90625 
L 19.671875 72.90625 
L 19.671875 8.296875 
L 55.171875 8.296875 
L 55.171875 0 
L 9.8125 0 
z
" id="DejaVuSans-4c"/>
      <path d="M 30.609375 48.390625 
Q 23.390625 48.390625 19.1875 42.75 
Q 14.984375 37.109375 14.984375 27.296875 
Q 14.984375 17.484375 19.15625 11.84375 
Q 23.34375 6.203125 30.609375 6.203125 
Q 37.796875 6.203125 41.984375 11.859375 
Q 46.1875 17.53125 46.1875 27.296875 
Q 46.1875 37.015625 41.984375 42.703125 
Q 37.796875 48.390625 30.609375 48.390625 
z
M 30.609375 56 
Q 42.328125 56 49.015625 48.375 
Q 55.71875 40.765625 55.71875 27.296875 
Q 55.71875 13.875 49.015625 6.21875 
Q 42.328125 -1.421875 30.609375 -1.421875 
Q 18.84375 -1.421875 12.171875 6.21875 
Q 5.515625 13.875 5.515625 27.296875 
Q 5.515625 40.765625 12.171875 48.375 
Q 18.84375 56 30.609375 56 
z
" id="DejaVuSans-6f"/>
      <path d="M 44.28125 53.078125 
L 44.28125 44.578125 
Q 40.484375 46.53125 36.375 47.5 
Q 32.28125 48.484375 27.875 48.484375 
Q 21.1875 48.484375 17.84375 46.4375 
Q 14.5 44.390625 14.5 40.28125 
Q 14.5 37.15625 16.890625 35.375 
Q 19.28125 33.59375 26.515625 31.984375 
L 29.59375 31.296875 
Q 39.15625 29.25 43.1875 25.515625 
Q 47.21875 21.78125 47.21875 15.09375 
Q 47.21875 7.46875 41.1875 3.015625 
Q 35.15625 -1.421875 24.609375 -1.421875 
Q 20.21875 -1.421875 15.453125 -0.5625 
Q 10.6875 0.296875 5.421875 2 
L 5.421875 11.28125 
Q 10.40625 8.6875 15.234375 7.390625 
Q 20.0625 6.109375 24.8125 6.109375 
Q 31.15625 6.109375 34.5625 8.28125 
Q 37.984375 10.453125 37.984375 14.40625 
Q 37.984375 18.0625 35.515625 20.015625 
Q 33.0625 21.96875 24.703125 23.78125 
L 21.578125 24.515625 
Q 13.234375 26.265625 9.515625 29.90625 
Q 5.8125 33.546875 5.8125 39.890625 
Q 5.8125 47.609375 11.28125 51.796875 
Q 16.75 56 26.8125 56 
Q 31.78125 56 36.171875 55.265625 
Q 40.578125 54.546875 44.28125 53.078125 
z
" id="DejaVuSans-73"/>
      <path id="DejaVuSans-20"/>
      <path d="M 41.109375 46.296875 
Q 39.59375 47.171875 37.8125 47.578125 
Q 36.03125 48 33.890625 48 
Q 26.265625 48 22.1875 43.046875 
Q 18.109375 38.09375 18.109375 28.8125 
L 18.109375 0 
L 9.078125 0 
L 9.078125 54.6875 
L 18.109375 54.6875 
L 18.109375 46.1875 
Q 20.953125 51.171875 25.484375 53.578125 
Q 30.03125 56 36.53125 56 
Q 37.453125 56 38.578125 55.875 
Q 39.703125 55.765625 41.0625 55.515625 
z
" id="DejaVuSans-72"/>
      <path d="M 34.28125 27.484375 
Q 23.390625 27.484375 19.1875 25 
Q 14.984375 22.515625 14.984375 16.5 
Q 14.984375 11.71875 18.140625 8.90625 
Q 21.296875 6.109375 26.703125 6.109375 
Q 34.1875 6.109375 38.703125 11.40625 
Q 43.21875 16.703125 43.21875 25.484375 
L 43.21875 27.484375 
z
M 52.203125 31.203125 
L 52.203125 0 
L 43.21875 0 
L 43.21875 8.296875 
Q 40.140625 3.328125 35.546875 0.953125 
Q 30.953125 -1.421875 24.3125 -1.421875 
Q 15.921875 -1.421875 10.953125 3.296875 
Q 6 8.015625 6 15.921875 
Q 6 25.140625 12.171875 29.828125 
Q 18.359375 34.515625 30.609375 34.515625 
L 43.21875 34.515625 
L 43.21875 35.40625 
Q 43.21875 41.609375 39.140625 45 
Q 35.0625 48.390625 27.6875 48.390625 
Q 23 48.390625 18.546875 47.265625 
Q 14.109375 46.140625 10.015625 43.890625 
L 10.015625 52.203125 
Q 14.9375 54.109375 19.578125 55.046875 
Q 24.21875 56 28.609375 56 
Q 40.484375 56 46.34375 49.84375 
Q 52.203125 43.703125 52.203125 31.203125 
z
" id="DejaVuSans-61"/>
      <path d="M 18.3125 70.21875 
L 18.3125 54.6875 
L 36.8125 54.6875 
L 36.8125 47.703125 
L 18.3125 47.703125 
L 18.3125 18.015625 
Q 18.3125 11.328125 20.140625 9.421875 
Q 21.96875 7.515625 27.59375 7.515625 
L 36.8125 7.515625 
L 36.8125 0 
L 27.59375 0 
Q 17.1875 0 13.234375 3.875 
Q 9.28125 7.765625 9.28125 18.015625 
L 9.28125 47.703125 
L 2.6875 47.703125 
L 2.6875 54.6875 
L 9.28125 54.6875 
L 9.28125 70.21875 
z
" id="DejaVuSans-74"/>
      <path d="M 56.203125 29.59375 
L 56.203125 25.203125 
L 14.890625 25.203125 
Q 15.484375 15.921875 20.484375 11.0625 
Q 25.484375 6.203125 34.421875 6.203125 
Q 39.59375 6.203125 44.453125 7.46875 
Q 49.3125 8.734375 54.109375 11.28125 
L 54.109375 2.78125 
Q 49.265625 0.734375 44.1875 -0.34375 
Q 39.109375 -1.421875 33.890625 -1.421875 
Q 20.796875 -1.421875 13.15625 6.1875 
Q 5.515625 13.8125 5.515625 26.8125 
Q 5.515625 40.234375 12.765625 48.109375 
Q 20.015625 56 32.328125 56 
Q 43.359375 56 49.78125 48.890625 
Q 56.203125 41.796875 56.203125 29.59375 
z
M 47.21875 32.234375 
Q 47.125 39.59375 43.09375 43.984375 
Q 39.0625 48.390625 32.421875 48.390625 
Q 24.90625 48.390625 20.390625 44.140625 
Q 15.875 39.890625 15.1875 32.171875 
z
" id="DejaVuSans-65"/>
     </defs>
     <g transform="translate(226.465781 331.916562)scale(0.1 -0.1)">
      <use xlink:href="#DejaVuSans-4c"/>
      <use x="55.697266" xlink:href="#DejaVuSans-6f"/>
      <use x="116.878906" xlink:href="#DejaVuSans-73"/>
      <use x="168.978516" xlink:href="#DejaVuSans-73"/>
      <use x="221.078125" xlink:href="#DejaVuSans-20"/>
      <use x="252.865234" xlink:href="#DejaVuSans-72"/>
      <use x="293.978516" xlink:href="#DejaVuSans-61"/>
      <use x="355.257812" xlink:href="#DejaVuSans-74"/>
      <use x="394.466797" xlink:href="#DejaVuSans-65"/>
     </g>
    </g>
   </g>
   <g id="matplotlib.axis_2">
    <g id="ytick_1">
     <g id="line2d_5">
      <defs>
       <path d="M 0 0 
L -3.5 0 
" id="mb5f4965060" style="stroke:#000000;stroke-width:0.8;"/>
      </defs>
      <g>
       <use style="stroke:#000000;stroke-width:0.8;" x="51.05" xlink:href="#mb5f4965060" y="272.848485"/>
      </g>
     </g>
     <g id="text_6">
      <!-- 30 -->
      <defs>
       <path d="M 40.578125 39.3125 
Q 47.65625 37.796875 51.625 33 
Q 55.609375 28.21875 55.609375 21.1875 
Q 55.609375 10.40625 48.1875 4.484375 
Q 40.765625 -1.421875 27.09375 -1.421875 
Q 22.515625 -1.421875 17.65625 -0.515625 
Q 12.796875 0.390625 7.625 2.203125 
L 7.625 11.71875 
Q 11.71875 9.328125 16.59375 8.109375 
Q 21.484375 6.890625 26.8125 6.890625 
Q 36.078125 6.890625 40.9375 10.546875 
Q 45.796875 14.203125 45.796875 21.1875 
Q 45.796875 27.640625 41.28125 31.265625 
Q 36.765625 34.90625 28.71875 34.90625 
L 20.21875 34.90625 
L 20.21875 43.015625 
L 29.109375 43.015625 
Q 36.375 43.015625 40.234375 45.921875 
Q 44.09375 48.828125 44.09375 54.296875 
Q 44.09375 59.90625 40.109375 62.90625 
Q 36.140625 65.921875 28.71875 65.921875 
Q 24.65625 65.921875 20.015625 65.03125 
Q 15.375 64.15625 9.8125 62.3125 
L 9.8125 71.09375 
Q 15.4375 72.65625 20.34375 73.4375 
Q 25.25 74.21875 29.59375 74.21875 
Q 40.828125 74.21875 47.359375 69.109375 
Q 53.90625 64.015625 53.90625 55.328125 
Q 53.90625 49.265625 50.4375 45.09375 
Q 46.96875 40.921875 40.578125 39.3125 
z
" id="DejaVuSans-33"/>
      </defs>
      <g transform="translate(31.325 276.647704)scale(0.1 -0.1)">
       <use xlink:href="#DejaVuSans-33"/>
       <use x="63.623047" xlink:href="#DejaVuSans-30"/>
      </g>
     </g>
    </g>
    <g id="ytick_2">
     <g id="line2d_6">
      <g>
       <use style="stroke:#000000;stroke-width:0.8;" x="51.05" xlink:href="#mb5f4965060" y="237.658182"/>
      </g>
     </g>
     <g id="text_7">
      <!-- 40 -->
      <defs>
       <path d="M 37.796875 64.3125 
L 12.890625 25.390625 
L 37.796875 25.390625 
z
M 35.203125 72.90625 
L 47.609375 72.90625 
L 47.609375 25.390625 
L 58.015625 25.390625 
L 58.015625 17.1875 
L 47.609375 17.1875 
L 47.609375 0 
L 37.796875 0 
L 37.796875 17.1875 
L 4.890625 17.1875 
L 4.890625 26.703125 
z
" id="DejaVuSans-34"/>
      </defs>
      <g transform="translate(31.325 241.457401)scale(0.1 -0.1)">
       <use xlink:href="#DejaVuSans-34"/>
       <use x="63.623047" xlink:href="#DejaVuSans-30"/>
      </g>
     </g>
    </g>
    <g id="ytick_3">
     <g id="line2d_7">
      <g>
       <use style="stroke:#000000;stroke-width:0.8;" x="51.05" xlink:href="#mb5f4965060" y="202.467879"/>
      </g>
     </g>
     <g id="text_8">
      <!-- 50 -->
      <g transform="translate(31.325 206.267098)scale(0.1 -0.1)">
       <use xlink:href="#DejaVuSans-35"/>
       <use x="63.623047" xlink:href="#DejaVuSans-30"/>
      </g>
     </g>
    </g>
    <g id="ytick_4">
     <g id="line2d_8">
      <g>
       <use style="stroke:#000000;stroke-width:0.8;" x="51.05" xlink:href="#mb5f4965060" y="167.277576"/>
      </g>
     </g>
     <g id="text_9">
      <!-- 60 -->
      <defs>
       <path d="M 33.015625 40.375 
Q 26.375 40.375 22.484375 35.828125 
Q 18.609375 31.296875 18.609375 23.390625 
Q 18.609375 15.53125 22.484375 10.953125 
Q 26.375 6.390625 33.015625 6.390625 
Q 39.65625 6.390625 43.53125 10.953125 
Q 47.40625 15.53125 47.40625 23.390625 
Q 47.40625 31.296875 43.53125 35.828125 
Q 39.65625 40.375 33.015625 40.375 
z
M 52.59375 71.296875 
L 52.59375 62.3125 
Q 48.875 64.0625 45.09375 64.984375 
Q 41.3125 65.921875 37.59375 65.921875 
Q 27.828125 65.921875 22.671875 59.328125 
Q 17.53125 52.734375 16.796875 39.40625 
Q 19.671875 43.65625 24.015625 45.921875 
Q 28.375 48.1875 33.59375 48.1875 
Q 44.578125 48.1875 50.953125 41.515625 
Q 57.328125 34.859375 57.328125 23.390625 
Q 57.328125 12.15625 50.6875 5.359375 
Q 44.046875 -1.421875 33.015625 -1.421875 
Q 20.359375 -1.421875 13.671875 8.265625 
Q 6.984375 17.96875 6.984375 36.375 
Q 6.984375 53.65625 15.1875 63.9375 
Q 23.390625 74.21875 37.203125 74.21875 
Q 40.921875 74.21875 44.703125 73.484375 
Q 48.484375 72.75 52.59375 71.296875 
z
" id="DejaVuSans-36"/>
      </defs>
      <g transform="translate(31.325 171.076795)scale(0.1 -0.1)">
       <use xlink:href="#DejaVuSans-36"/>
       <use x="63.623047" xlink:href="#DejaVuSans-30"/>
      </g>
     </g>
    </g>
    <g id="ytick_5">
     <g id="line2d_9">
      <g>
       <use style="stroke:#000000;stroke-width:0.8;" x="51.05" xlink:href="#mb5f4965060" y="132.087273"/>
      </g>
     </g>
     <g id="text_10">
      <!-- 70 -->
      <defs>
       <path d="M 8.203125 72.90625 
L 55.078125 72.90625 
L 55.078125 68.703125 
L 28.609375 0 
L 18.3125 0 
L 43.21875 64.59375 
L 8.203125 64.59375 
z
" id="DejaVuSans-37"/>
      </defs>
      <g transform="translate(31.325 135.886491)scale(0.1 -0.1)">
       <use xlink:href="#DejaVuSans-37"/>
       <use x="63.623047" xlink:href="#DejaVuSans-30"/>
      </g>
     </g>
    </g>
    <g id="ytick_6">
     <g id="line2d_10">
      <g>
       <use style="stroke:#000000;stroke-width:0.8;" x="51.05" xlink:href="#mb5f4965060" y="96.89697"/>
      </g>
     </g>
     <g id="text_11">
      <!-- 80 -->
      <defs>
       <path d="M 31.78125 34.625 
Q 24.75 34.625 20.71875 30.859375 
Q 16.703125 27.09375 16.703125 20.515625 
Q 16.703125 13.921875 20.71875 10.15625 
Q 24.75 6.390625 31.78125 6.390625 
Q 38.8125 6.390625 42.859375 10.171875 
Q 46.921875 13.96875 46.921875 20.515625 
Q 46.921875 27.09375 42.890625 30.859375 
Q 38.875 34.625 31.78125 34.625 
z
M 21.921875 38.8125 
Q 15.578125 40.375 12.03125 44.71875 
Q 8.5 49.078125 8.5 55.328125 
Q 8.5 64.0625 14.71875 69.140625 
Q 20.953125 74.21875 31.78125 74.21875 
Q 42.671875 74.21875 48.875 69.140625 
Q 55.078125 64.0625 55.078125 55.328125 
Q 55.078125 49.078125 51.53125 44.71875 
Q 48 40.375 41.703125 38.8125 
Q 48.828125 37.15625 52.796875 32.3125 
Q 56.78125 27.484375 56.78125 20.515625 
Q 56.78125 9.90625 50.3125 4.234375 
Q 43.84375 -1.421875 31.78125 -1.421875 
Q 19.734375 -1.421875 13.25 4.234375 
Q 6.78125 9.90625 6.78125 20.515625 
Q 6.78125 27.484375 10.78125 32.3125 
Q 14.796875 37.15625 21.921875 38.8125 
z
M 18.3125 54.390625 
Q 18.3125 48.734375 21.84375 45.5625 
Q 25.390625 42.390625 31.78125 42.390625 
Q 38.140625 42.390625 41.71875 45.5625 
Q 45.3125 48.734375 45.3125 54.390625 
Q 45.3125 60.0625 41.71875 63.234375 
Q 38.140625 66.40625 31.78125 66.40625 
Q 25.390625 66.40625 21.84375 63.234375 
Q 18.3125 60.0625 18.3125 54.390625 
z
" id="DejaVuSans-38"/>
      </defs>
      <g transform="translate(31.325 100.696188)scale(0.1 -0.1)">
       <use xlink:href="#DejaVuSans-38"/>
       <use x="63.623047" xlink:href="#DejaVuSans-30"/>
      </g>
     </g>
    </g>
    <g id="ytick_7">
     <g id="line2d_11">
      <g>
       <use style="stroke:#000000;stroke-width:0.8;" x="51.05" xlink:href="#mb5f4965060" y="61.706667"/>
      </g>
     </g>
     <g id="text_12">
      <!-- 90 -->
      <defs>
       <path d="M 10.984375 1.515625 
L 10.984375 10.5 
Q 14.703125 8.734375 18.5 7.8125 
Q 22.3125 6.890625 25.984375 6.890625 
Q 35.75 6.890625 40.890625 13.453125 
Q 46.046875 20.015625 46.78125 33.40625 
Q 43.953125 29.203125 39.59375 26.953125 
Q 35.25 24.703125 29.984375 24.703125 
Q 19.046875 24.703125 12.671875 31.3125 
Q 6.296875 37.9375 6.296875 49.421875 
Q 6.296875 60.640625 12.9375 67.421875 
Q 19.578125 74.21875 30.609375 74.21875 
Q 43.265625 74.21875 49.921875 64.515625 
Q 56.59375 54.828125 56.59375 36.375 
Q 56.59375 19.140625 48.40625 8.859375 
Q 40.234375 -1.421875 26.421875 -1.421875 
Q 22.703125 -1.421875 18.890625 -0.6875 
Q 15.09375 0.046875 10.984375 1.515625 
z
M 30.609375 32.421875 
Q 37.25 32.421875 41.125 36.953125 
Q 45.015625 41.5 45.015625 49.421875 
Q 45.015625 57.28125 41.125 61.84375 
Q 37.25 66.40625 30.609375 66.40625 
Q 23.96875 66.40625 20.09375 61.84375 
Q 16.21875 57.28125 16.21875 49.421875 
Q 16.21875 41.5 20.09375 36.953125 
Q 23.96875 32.421875 30.609375 32.421875 
z
" id="DejaVuSans-39"/>
      </defs>
      <g transform="translate(31.325 65.505885)scale(0.1 -0.1)">
       <use xlink:href="#DejaVuSans-39"/>
       <use x="63.623047" xlink:href="#DejaVuSans-30"/>
      </g>
     </g>
    </g>
    <g id="ytick_8">
     <g id="line2d_12">
      <g>
       <use style="stroke:#000000;stroke-width:0.8;" x="51.05" xlink:href="#mb5f4965060" y="26.516364"/>
      </g>
     </g>
     <g id="text_13">
      <!-- 100 -->
      <g transform="translate(24.9625 30.315582)scale(0.1 -0.1)">
       <use xlink:href="#DejaVuSans-31"/>
       <use x="63.623047" xlink:href="#DejaVuSans-30"/>
       <use x="127.246094" xlink:href="#DejaVuSans-30"/>
      </g>
     </g>
    </g>
    <g id="text_14">
     <!-- Classification rate (%) -->
     <defs>
      <path d="M 64.40625 67.28125 
L 64.40625 56.890625 
Q 59.421875 61.53125 53.78125 63.8125 
Q 48.140625 66.109375 41.796875 66.109375 
Q 29.296875 66.109375 22.65625 58.46875 
Q 16.015625 50.828125 16.015625 36.375 
Q 16.015625 21.96875 22.65625 14.328125 
Q 29.296875 6.6875 41.796875 6.6875 
Q 48.140625 6.6875 53.78125 8.984375 
Q 59.421875 11.28125 64.40625 15.921875 
L 64.40625 5.609375 
Q 59.234375 2.09375 53.4375 0.328125 
Q 47.65625 -1.421875 41.21875 -1.421875 
Q 24.65625 -1.421875 15.125 8.703125 
Q 5.609375 18.84375 5.609375 36.375 
Q 5.609375 53.953125 15.125 64.078125 
Q 24.65625 74.21875 41.21875 74.21875 
Q 47.75 74.21875 53.53125 72.484375 
Q 59.328125 70.75 64.40625 67.28125 
z
" id="DejaVuSans-43"/>
      <path d="M 9.421875 75.984375 
L 18.40625 75.984375 
L 18.40625 0 
L 9.421875 0 
z
" id="DejaVuSans-6c"/>
      <path d="M 9.421875 54.6875 
L 18.40625 54.6875 
L 18.40625 0 
L 9.421875 0 
z
M 9.421875 75.984375 
L 18.40625 75.984375 
L 18.40625 64.59375 
L 9.421875 64.59375 
z
" id="DejaVuSans-69"/>
      <path d="M 37.109375 75.984375 
L 37.109375 68.5 
L 28.515625 68.5 
Q 23.6875 68.5 21.796875 66.546875 
Q 19.921875 64.59375 19.921875 59.515625 
L 19.921875 54.6875 
L 34.71875 54.6875 
L 34.71875 47.703125 
L 19.921875 47.703125 
L 19.921875 0 
L 10.890625 0 
L 10.890625 47.703125 
L 2.296875 47.703125 
L 2.296875 54.6875 
L 10.890625 54.6875 
L 10.890625 58.5 
Q 10.890625 67.625 15.140625 71.796875 
Q 19.390625 75.984375 28.609375 75.984375 
z
" id="DejaVuSans-66"/>
      <path d="M 48.78125 52.59375 
L 48.78125 44.1875 
Q 44.96875 46.296875 41.140625 47.34375 
Q 37.3125 48.390625 33.40625 48.390625 
Q 24.65625 48.390625 19.8125 42.84375 
Q 14.984375 37.3125 14.984375 27.296875 
Q 14.984375 17.28125 19.8125 11.734375 
Q 24.65625 6.203125 33.40625 6.203125 
Q 37.3125 6.203125 41.140625 7.25 
Q 44.96875 8.296875 48.78125 10.40625 
L 48.78125 2.09375 
Q 45.015625 0.34375 40.984375 -0.53125 
Q 36.96875 -1.421875 32.421875 -1.421875 
Q 20.0625 -1.421875 12.78125 6.34375 
Q 5.515625 14.109375 5.515625 27.296875 
Q 5.515625 40.671875 12.859375 48.328125 
Q 20.21875 56 33.015625 56 
Q 37.15625 56 41.109375 55.140625 
Q 45.0625 54.296875 48.78125 52.59375 
z
" id="DejaVuSans-63"/>
      <path d="M 54.890625 33.015625 
L 54.890625 0 
L 45.90625 0 
L 45.90625 32.71875 
Q 45.90625 40.484375 42.875 44.328125 
Q 39.84375 48.1875 33.796875 48.1875 
Q 26.515625 48.1875 22.3125 43.546875 
Q 18.109375 38.921875 18.109375 30.90625 
L 18.109375 0 
L 9.078125 0 
L 9.078125 54.6875 
L 18.109375 54.6875 
L 18.109375 46.1875 
Q 21.34375 51.125 25.703125 53.5625 
Q 30.078125 56 35.796875 56 
Q 45.21875 56 50.046875 50.171875 
Q 54.890625 44.34375 54.890625 33.015625 
z
" id="DejaVuSans-6e"/>
      <path d="M 31 75.875 
Q 24.46875 64.65625 21.28125 53.65625 
Q 18.109375 42.671875 18.109375 31.390625 
Q 18.109375 20.125 21.3125 9.0625 
Q 24.515625 -2 31 -13.1875 
L 23.1875 -13.1875 
Q 15.875 -1.703125 12.234375 9.375 
Q 8.59375 20.453125 8.59375 31.390625 
Q 8.59375 42.28125 12.203125 53.3125 
Q 15.828125 64.359375 23.1875 75.875 
z
" id="DejaVuSans-28"/>
      <path d="M 8.015625 75.875 
L 15.828125 75.875 
Q 23.140625 64.359375 26.78125 53.3125 
Q 30.421875 42.28125 30.421875 31.390625 
Q 30.421875 20.453125 26.78125 9.375 
Q 23.140625 -1.703125 15.828125 -13.1875 
L 8.015625 -13.1875 
Q 14.5 -2 17.703125 9.0625 
Q 20.90625 20.125 20.90625 31.390625 
Q 20.90625 42.671875 17.703125 53.65625 
Q 14.5 64.65625 8.015625 75.875 
z
" id="DejaVuSans-29"/>
     </defs>
     <g transform="translate(18.882812 213.549531)rotate(-90)scale(0.1 -0.1)">
      <use xlink:href="#DejaVuSans-43"/>
      <use x="69.824219" xlink:href="#DejaVuSans-6c"/>
      <use x="97.607422" xlink:href="#DejaVuSans-61"/>
      <use x="158.886719" xlink:href="#DejaVuSans-73"/>
      <use x="210.986328" xlink:href="#DejaVuSans-73"/>
      <use x="263.085938" xlink:href="#DejaVuSans-69"/>
      <use x="290.869141" xlink:href="#DejaVuSans-66"/>
      <use x="326.074219" xlink:href="#DejaVuSans-69"/>
      <use x="353.857422" xlink:href="#DejaVuSans-63"/>
      <use x="408.837891" xlink:href="#DejaVuSans-61"/>
      <use x="470.117188" xlink:href="#DejaVuSans-74"/>
      <use x="509.326172" xlink:href="#DejaVuSans-69"/>
      <use x="537.109375" xlink:href="#DejaVuSans-6f"/>
      <use x="598.291016" xlink:href="#DejaVuSans-6e"/>
      <use x="661.669922" xlink:href="#DejaVuSans-20"/>
      <use x="693.457031" xlink:href="#DejaVuSans-72"/>
      <use x="734.570312" xlink:href="#DejaVuSans-61"/>
      <use x="795.849609" xlink:href="#DejaVuSans-74"/>
      <use x="835.058594" xlink:href="#DejaVuSans-65"/>
      <use x="896.582031" xlink:href="#DejaVuSans-20"/>
      <use x="928.369141" xlink:href="#DejaVuSans-28"/>
      <use x="967.382812" xlink:href="#DejaVuSans-25"/>
      <use x="1062.402344" xlink:href="#DejaVuSans-29"/>
     </g>
    </g>
   </g>
   <g id="line2d_13">
    <path clip-path="url(#p7d56e45abb)" d="M 60.96075 26.516364 
L 60.96075 26.516364 
" style="fill:none;stroke:#000000;stroke-linecap:square;"/>
   </g>
   <g id="line2d_14">
    <path clip-path="url(#p7d56e45abb)" d="M 60.96075 26.516364 
L 60.96075 26.516364 
" style="fill:none;stroke:#000000;stroke-linecap:square;"/>
   </g>
   <g id="line2d_15">
    <path clip-path="url(#p7d56e45abb)" d="M 58.483063 26.516364 
L 63.438438 26.516364 
" style="fill:none;stroke:#000000;stroke-linecap:square;"/>
   </g>
   <g id="line2d_16">
    <path clip-path="url(#p7d56e45abb)" d="M 58.483063 26.516364 
L 63.438438 26.516364 
" style="fill:none;stroke:#000000;stroke-linecap:square;"/>
   </g>
   <g id="line2d_17">
    <defs>
     <path d="M 0 3 
C 0.795609 3 1.55874 2.683901 2.12132 2.12132 
C 2.683901 1.55874 3 0.795609 3 0 
C 3 -0.795609 2.683901 -1.55874 2.12132 -2.12132 
C 1.55874 -2.683901 0.795609 -3 0 -3 
C -0.795609 -3 -1.55874 -2.683901 -2.12132 -2.12132 
C -2.683901 -1.55874 -3 -0.795609 -3 0 
C -3 0.795609 -2.683901 1.55874 -2.12132 2.12132 
C -1.55874 2.683901 -0.795609 3 0 3 
z
" id="madfb23d414" style="stroke:#000000;"/>
    </defs>
    <g clip-path="url(#p7d56e45abb)">
     <use style="fill:none;stroke:#000000;" x="60.96075" xlink:href="#madfb23d414" y="61.706667"/>
     <use style="fill:none;stroke:#000000;" x="60.96075" xlink:href="#madfb23d414" y="44.111515"/>
     <use style="fill:none;stroke:#000000;" x="60.96075" xlink:href="#madfb23d414" y="44.111515"/>
     <use style="fill:none;stroke:#000000;" x="60.96075" xlink:href="#madfb23d414" y="44.111515"/>
     <use style="fill:none;stroke:#000000;" x="60.96075" xlink:href="#madfb23d414" y="44.111515"/>
     <use style="fill:none;stroke:#000000;" x="60.96075" xlink:href="#madfb23d414" y="61.706667"/>
     <use style="fill:none;stroke:#000000;" x="60.96075" xlink:href="#madfb23d414" y="44.111515"/>
     <use style="fill:none;stroke:#000000;" x="60.96075" xlink:href="#madfb23d414" y="44.111515"/>
     <use style="fill:none;stroke:#000000;" x="60.96075" xlink:href="#madfb23d414" y="44.111515"/>
     <use style="fill:none;stroke:#000000;" x="60.96075" xlink:href="#madfb23d414" y="61.706667"/>
     <use style="fill:none;stroke:#000000;" x="60.96075" xlink:href="#madfb23d414" y="44.111515"/>
     <use style="fill:none;stroke:#000000;" x="60.96075" xlink:href="#madfb23d414" y="61.706667"/>
     <use style="fill:none;stroke:#000000;" x="60.96075" xlink:href="#madfb23d414" y="44.111515"/>
     <use style="fill:none;stroke:#000000;" x="60.96075" xlink:href="#madfb23d414" y="61.706667"/>
     <use style="fill:none;stroke:#000000;" x="60.96075" xlink:href="#madfb23d414" y="61.706667"/>
    </g>
   </g>
   <g id="line2d_18">
    <path clip-path="url(#p7d56e45abb)" d="M 80.78225 26.516364 
L 80.78225 26.516364 
" style="fill:none;stroke:#000000;stroke-linecap:square;"/>
   </g>
   <g id="line2d_19">
    <path clip-path="url(#p7d56e45abb)" d="M 80.78225 26.516364 
L 80.78225 26.516364 
" style="fill:none;stroke:#000000;stroke-linecap:square;"/>
   </g>
   <g id="line2d_20">
    <path clip-path="url(#p7d56e45abb)" d="M 78.304563 26.516364 
L 83.259938 26.516364 
" style="fill:none;stroke:#000000;stroke-linecap:square;"/>
   </g>
   <g id="line2d_21">
    <path clip-path="url(#p7d56e45abb)" d="M 78.304563 26.516364 
L 83.259938 26.516364 
" style="fill:none;stroke:#000000;stroke-linecap:square;"/>
   </g>
   <g id="line2d_22">
    <g clip-path="url(#p7d56e45abb)">
     <use style="fill:none;stroke:#000000;" x="80.78225" xlink:href="#madfb23d414" y="79.301818"/>
     <use style="fill:none;stroke:#000000;" x="80.78225" xlink:href="#madfb23d414" y="44.111515"/>
     <use style="fill:none;stroke:#000000;" x="80.78225" xlink:href="#madfb23d414" y="44.111515"/>
     <use style="fill:none;stroke:#000000;" x="80.78225" xlink:href="#madfb23d414" y="61.706667"/>
     <use style="fill:none;stroke:#000000;" x="80.78225" xlink:href="#madfb23d414" y="44.111515"/>
     <use style="fill:none;stroke:#000000;" x="80.78225" xlink:href="#madfb23d414" y="61.706667"/>
     <use style="fill:none;stroke:#000000;" x="80.78225" xlink:href="#madfb23d414" y="44.111515"/>
     <use style="fill:none;stroke:#000000;" x="80.78225" xlink:href="#madfb23d414" y="44.111515"/>
     <use style="fill:none;stroke:#000000;" x="80.78225" xlink:href="#madfb23d414" y="44.111515"/>
     <use style="fill:none;stroke:#000000;" x="80.78225" xlink:href="#madfb23d414" y="44.111515"/>
     <use style="fill:none;stroke:#000000;" x="80.78225" xlink:href="#madfb23d414" y="44.111515"/>
     <use style="fill:none;stroke:#000000;" x="80.78225" xlink:href="#madfb23d414" y="44.111515"/>
     <use style="fill:none;stroke:#000000;" x="80.78225" xlink:href="#madfb23d414" y="44.111515"/>
    </g>
   </g>
   <g id="line2d_23">
    <path clip-path="url(#p7d56e45abb)" d="M 100.60375 26.516364 
L 100.60375 26.516364 
" style="fill:none;stroke:#000000;stroke-linecap:square;"/>
   </g>
   <g id="line2d_24">
    <path clip-path="url(#p7d56e45abb)" d="M 100.60375 26.516364 
L 100.60375 26.516364 
" style="fill:none;stroke:#000000;stroke-linecap:square;"/>
   </g>
   <g id="line2d_25">
    <path clip-path="url(#p7d56e45abb)" d="M 98.126063 26.516364 
L 103.081438 26.516364 
" style="fill:none;stroke:#000000;stroke-linecap:square;"/>
   </g>
   <g id="line2d_26">
    <path clip-path="url(#p7d56e45abb)" d="M 98.126063 26.516364 
L 103.081438 26.516364 
" style="fill:none;stroke:#000000;stroke-linecap:square;"/>
   </g>
   <g id="line2d_27">
    <g clip-path="url(#p7d56e45abb)">
     <use style="fill:none;stroke:#000000;" x="100.60375" xlink:href="#madfb23d414" y="61.706667"/>
     <use style="fill:none;stroke:#000000;" x="100.60375" xlink:href="#madfb23d414" y="44.111515"/>
     <use style="fill:none;stroke:#000000;" x="100.60375" xlink:href="#madfb23d414" y="44.111515"/>
     <use style="fill:none;stroke:#000000;" x="100.60375" xlink:href="#madfb23d414" y="44.111515"/>
     <use style="fill:none;stroke:#000000;" x="100.60375" xlink:href="#madfb23d414" y="44.111515"/>
     <use style="fill:none;stroke:#000000;" x="100.60375" xlink:href="#madfb23d414" y="44.111515"/>
     <use style="fill:none;stroke:#000000;" x="100.60375" xlink:href="#madfb23d414" y="44.111515"/>
     <use style="fill:none;stroke:#000000;" x="100.60375" xlink:href="#madfb23d414" y="44.111515"/>
     <use style="fill:none;stroke:#000000;" x="100.60375" xlink:href="#madfb23d414" y="61.706667"/>
     <use style="fill:none;stroke:#000000;" x="100.60375" xlink:href="#madfb23d414" y="44.111515"/>
     <use style="fill:none;stroke:#000000;" x="100.60375" xlink:href="#madfb23d414" y="61.706667"/>
     <use style="fill:none;stroke:#000000;" x="100.60375" xlink:href="#madfb23d414" y="44.111515"/>
     <use style="fill:none;stroke:#000000;" x="100.60375" xlink:href="#madfb23d414" y="44.111515"/>
     <use style="fill:none;stroke:#000000;" x="100.60375" xlink:href="#madfb23d414" y="61.706667"/>
    </g>
   </g>
   <g id="line2d_28">
    <path clip-path="url(#p7d56e45abb)" d="M 120.42525 26.516364 
L 120.42525 26.516364 
" style="fill:none;stroke:#000000;stroke-linecap:square;"/>
   </g>
   <g id="line2d_29">
    <path clip-path="url(#p7d56e45abb)" d="M 120.42525 26.516364 
L 120.42525 26.516364 
" style="fill:none;stroke:#000000;stroke-linecap:square;"/>
   </g>
   <g id="line2d_30">
    <path clip-path="url(#p7d56e45abb)" d="M 117.947563 26.516364 
L 122.902938 26.516364 
" style="fill:none;stroke:#000000;stroke-linecap:square;"/>
   </g>
   <g id="line2d_31">
    <path clip-path="url(#p7d56e45abb)" d="M 117.947563 26.516364 
L 122.902938 26.516364 
" style="fill:none;stroke:#000000;stroke-linecap:square;"/>
   </g>
   <g id="line2d_32">
    <g clip-path="url(#p7d56e45abb)">
     <use style="fill:none;stroke:#000000;" x="120.42525" xlink:href="#madfb23d414" y="61.706667"/>
     <use style="fill:none;stroke:#000000;" x="120.42525" xlink:href="#madfb23d414" y="44.111515"/>
     <use style="fill:none;stroke:#000000;" x="120.42525" xlink:href="#madfb23d414" y="44.111515"/>
     <use style="fill:none;stroke:#000000;" x="120.42525" xlink:href="#madfb23d414" y="44.111515"/>
     <use style="fill:none;stroke:#000000;" x="120.42525" xlink:href="#madfb23d414" y="44.111515"/>
     <use style="fill:none;stroke:#000000;" x="120.42525" xlink:href="#madfb23d414" y="61.706667"/>
     <use style="fill:none;stroke:#000000;" x="120.42525" xlink:href="#madfb23d414" y="44.111515"/>
     <use style="fill:none;stroke:#000000;" x="120.42525" xlink:href="#madfb23d414" y="44.111515"/>
     <use style="fill:none;stroke:#000000;" x="120.42525" xlink:href="#madfb23d414" y="44.111515"/>
     <use style="fill:none;stroke:#000000;" x="120.42525" xlink:href="#madfb23d414" y="44.111515"/>
     <use style="fill:none;stroke:#000000;" x="120.42525" xlink:href="#madfb23d414" y="44.111515"/>
     <use style="fill:none;stroke:#000000;" x="120.42525" xlink:href="#madfb23d414" y="44.111515"/>
     <use style="fill:none;stroke:#000000;" x="120.42525" xlink:href="#madfb23d414" y="44.111515"/>
     <use style="fill:none;stroke:#000000;" x="120.42525" xlink:href="#madfb23d414" y="44.111515"/>
     <use style="fill:none;stroke:#000000;" x="120.42525" xlink:href="#madfb23d414" y="44.111515"/>
    </g>
   </g>
   <g id="line2d_33">
    <path clip-path="url(#p7d56e45abb)" d="M 140.24675 44.111515 
L 140.24675 61.706667 
" style="fill:none;stroke:#000000;stroke-linecap:square;"/>
   </g>
   <g id="line2d_34">
    <path clip-path="url(#p7d56e45abb)" d="M 140.24675 26.516364 
L 140.24675 26.516364 
" style="fill:none;stroke:#000000;stroke-linecap:square;"/>
   </g>
   <g id="line2d_35">
    <path clip-path="url(#p7d56e45abb)" d="M 137.769063 61.706667 
L 142.724438 61.706667 
" style="fill:none;stroke:#000000;stroke-linecap:square;"/>
   </g>
   <g id="line2d_36">
    <path clip-path="url(#p7d56e45abb)" d="M 137.769063 26.516364 
L 142.724438 26.516364 
" style="fill:none;stroke:#000000;stroke-linecap:square;"/>
   </g>
   <g id="line2d_37">
    <g clip-path="url(#p7d56e45abb)">
     <use style="fill:none;stroke:#000000;" x="140.24675" xlink:href="#madfb23d414" y="79.301818"/>
    </g>
   </g>
   <g id="line2d_38">
    <path clip-path="url(#p7d56e45abb)" d="M 160.06825 30.915152 
L 160.06825 30.915152 
" style="fill:none;stroke:#000000;stroke-linecap:square;"/>
   </g>
   <g id="line2d_39">
    <path clip-path="url(#p7d56e45abb)" d="M 160.06825 26.516364 
L 160.06825 26.516364 
" style="fill:none;stroke:#000000;stroke-linecap:square;"/>
   </g>
   <g id="line2d_40">
    <path clip-path="url(#p7d56e45abb)" d="M 157.590563 30.915152 
L 162.545938 30.915152 
" style="fill:none;stroke:#000000;stroke-linecap:square;"/>
   </g>
   <g id="line2d_41">
    <path clip-path="url(#p7d56e45abb)" d="M 157.590563 26.516364 
L 162.545938 26.516364 
" style="fill:none;stroke:#000000;stroke-linecap:square;"/>
   </g>
   <g id="line2d_42">
    <g clip-path="url(#p7d56e45abb)">
     <use style="fill:none;stroke:#000000;" x="160.06825" xlink:href="#madfb23d414" y="61.706667"/>
     <use style="fill:none;stroke:#000000;" x="160.06825" xlink:href="#madfb23d414" y="44.111515"/>
     <use style="fill:none;stroke:#000000;" x="160.06825" xlink:href="#madfb23d414" y="44.111515"/>
     <use style="fill:none;stroke:#000000;" x="160.06825" xlink:href="#madfb23d414" y="44.111515"/>
     <use style="fill:none;stroke:#000000;" x="160.06825" xlink:href="#madfb23d414" y="44.111515"/>
     <use style="fill:none;stroke:#000000;" x="160.06825" xlink:href="#madfb23d414" y="61.706667"/>
     <use style="fill:none;stroke:#000000;" x="160.06825" xlink:href="#madfb23d414" y="44.111515"/>
     <use style="fill:none;stroke:#000000;" x="160.06825" xlink:href="#madfb23d414" y="44.111515"/>
     <use style="fill:none;stroke:#000000;" x="160.06825" xlink:href="#madfb23d414" y="44.111515"/>
     <use style="fill:none;stroke:#000000;" x="160.06825" xlink:href="#madfb23d414" y="61.706667"/>
     <use style="fill:none;stroke:#000000;" x="160.06825" xlink:href="#madfb23d414" y="44.111515"/>
     <use style="fill:none;stroke:#000000;" x="160.06825" xlink:href="#madfb23d414" y="61.706667"/>
     <use style="fill:none;stroke:#000000;" x="160.06825" xlink:href="#madfb23d414" y="44.111515"/>
     <use style="fill:none;stroke:#000000;" x="160.06825" xlink:href="#madfb23d414" y="61.706667"/>
     <use style="fill:none;stroke:#000000;" x="160.06825" xlink:href="#madfb23d414" y="61.706667"/>
     <use style="fill:none;stroke:#000000;" x="160.06825" xlink:href="#madfb23d414" y="44.111515"/>
    </g>
   </g>
   <g id="line2d_43">
    <path clip-path="url(#p7d56e45abb)" d="M 179.88975 79.301818 
L 179.88975 149.682424 
" style="fill:none;stroke:#000000;stroke-linecap:square;"/>
   </g>
   <g id="line2d_44">
    <path clip-path="url(#p7d56e45abb)" d="M 179.88975 26.516364 
L 179.88975 26.516364 
" style="fill:none;stroke:#000000;stroke-linecap:square;"/>
   </g>
   <g id="line2d_45">
    <path clip-path="url(#p7d56e45abb)" d="M 177.412063 149.682424 
L 182.367437 149.682424 
" style="fill:none;stroke:#000000;stroke-linecap:square;"/>
   </g>
   <g id="line2d_46">
    <path clip-path="url(#p7d56e45abb)" d="M 177.412063 26.516364 
L 182.367437 26.516364 
" style="fill:none;stroke:#000000;stroke-linecap:square;"/>
   </g>
   <g id="line2d_47">
    <g clip-path="url(#p7d56e45abb)">
     <use style="fill:none;stroke:#000000;" x="179.88975" xlink:href="#madfb23d414" y="167.277576"/>
    </g>
   </g>
   <g id="line2d_48">
    <path clip-path="url(#p7d56e45abb)" d="M 199.71125 44.111515 
L 199.71125 61.706667 
" style="fill:none;stroke:#000000;stroke-linecap:square;"/>
   </g>
   <g id="line2d_49">
    <path clip-path="url(#p7d56e45abb)" d="M 199.71125 26.516364 
L 199.71125 26.516364 
" style="fill:none;stroke:#000000;stroke-linecap:square;"/>
   </g>
   <g id="line2d_50">
    <path clip-path="url(#p7d56e45abb)" d="M 197.233563 61.706667 
L 202.188938 61.706667 
" style="fill:none;stroke:#000000;stroke-linecap:square;"/>
   </g>
   <g id="line2d_51">
    <path clip-path="url(#p7d56e45abb)" d="M 197.233563 26.516364 
L 202.188938 26.516364 
" style="fill:none;stroke:#000000;stroke-linecap:square;"/>
   </g>
   <g id="line2d_52">
    <g clip-path="url(#p7d56e45abb)">
     <use style="fill:none;stroke:#000000;" x="199.71125" xlink:href="#madfb23d414" y="79.301818"/>
    </g>
   </g>
   <g id="line2d_53">
    <path clip-path="url(#p7d56e45abb)" d="M 219.53275 30.915152 
L 219.53275 30.915152 
" style="fill:none;stroke:#000000;stroke-linecap:square;"/>
   </g>
   <g id="line2d_54">
    <path clip-path="url(#p7d56e45abb)" d="M 219.53275 26.516364 
L 219.53275 26.516364 
" style="fill:none;stroke:#000000;stroke-linecap:square;"/>
   </g>
   <g id="line2d_55">
    <path clip-path="url(#p7d56e45abb)" d="M 217.055063 30.915152 
L 222.010437 30.915152 
" style="fill:none;stroke:#000000;stroke-linecap:square;"/>
   </g>
   <g id="line2d_56">
    <path clip-path="url(#p7d56e45abb)" d="M 217.055063 26.516364 
L 222.010437 26.516364 
" style="fill:none;stroke:#000000;stroke-linecap:square;"/>
   </g>
   <g id="line2d_57">
    <g clip-path="url(#p7d56e45abb)">
     <use style="fill:none;stroke:#000000;" x="219.53275" xlink:href="#madfb23d414" y="61.706667"/>
     <use style="fill:none;stroke:#000000;" x="219.53275" xlink:href="#madfb23d414" y="44.111515"/>
     <use style="fill:none;stroke:#000000;" x="219.53275" xlink:href="#madfb23d414" y="44.111515"/>
     <use style="fill:none;stroke:#000000;" x="219.53275" xlink:href="#madfb23d414" y="44.111515"/>
     <use style="fill:none;stroke:#000000;" x="219.53275" xlink:href="#madfb23d414" y="44.111515"/>
     <use style="fill:none;stroke:#000000;" x="219.53275" xlink:href="#madfb23d414" y="61.706667"/>
     <use style="fill:none;stroke:#000000;" x="219.53275" xlink:href="#madfb23d414" y="44.111515"/>
     <use style="fill:none;stroke:#000000;" x="219.53275" xlink:href="#madfb23d414" y="44.111515"/>
     <use style="fill:none;stroke:#000000;" x="219.53275" xlink:href="#madfb23d414" y="44.111515"/>
     <use style="fill:none;stroke:#000000;" x="219.53275" xlink:href="#madfb23d414" y="44.111515"/>
     <use style="fill:none;stroke:#000000;" x="219.53275" xlink:href="#madfb23d414" y="44.111515"/>
     <use style="fill:none;stroke:#000000;" x="219.53275" xlink:href="#madfb23d414" y="44.111515"/>
     <use style="fill:none;stroke:#000000;" x="219.53275" xlink:href="#madfb23d414" y="44.111515"/>
     <use style="fill:none;stroke:#000000;" x="219.53275" xlink:href="#madfb23d414" y="44.111515"/>
     <use style="fill:none;stroke:#000000;" x="219.53275" xlink:href="#madfb23d414" y="44.111515"/>
     <use style="fill:none;stroke:#000000;" x="219.53275" xlink:href="#madfb23d414" y="44.111515"/>
    </g>
   </g>
   <g id="line2d_58">
    <path clip-path="url(#p7d56e45abb)" d="M 239.35425 44.111515 
L 239.35425 61.706667 
" style="fill:none;stroke:#000000;stroke-linecap:square;"/>
   </g>
   <g id="line2d_59">
    <path clip-path="url(#p7d56e45abb)" d="M 239.35425 26.516364 
L 239.35425 26.516364 
" style="fill:none;stroke:#000000;stroke-linecap:square;"/>
   </g>
   <g id="line2d_60">
    <path clip-path="url(#p7d56e45abb)" d="M 236.876563 61.706667 
L 241.831938 61.706667 
" style="fill:none;stroke:#000000;stroke-linecap:square;"/>
   </g>
   <g id="line2d_61">
    <path clip-path="url(#p7d56e45abb)" d="M 236.876563 26.516364 
L 241.831938 26.516364 
" style="fill:none;stroke:#000000;stroke-linecap:square;"/>
   </g>
   <g id="line2d_62">
    <g clip-path="url(#p7d56e45abb)">
     <use style="fill:none;stroke:#000000;" x="239.35425" xlink:href="#madfb23d414" y="79.301818"/>
    </g>
   </g>
   <g id="line2d_63">
    <path clip-path="url(#p7d56e45abb)" d="M 259.17575 114.492121 
L 259.17575 149.682424 
" style="fill:none;stroke:#000000;stroke-linecap:square;"/>
   </g>
   <g id="line2d_64">
    <path clip-path="url(#p7d56e45abb)" d="M 259.17575 44.111515 
L 259.17575 26.516364 
" style="fill:none;stroke:#000000;stroke-linecap:square;"/>
   </g>
   <g id="line2d_65">
    <path clip-path="url(#p7d56e45abb)" d="M 256.698062 149.682424 
L 261.653437 149.682424 
" style="fill:none;stroke:#000000;stroke-linecap:square;"/>
   </g>
   <g id="line2d_66">
    <path clip-path="url(#p7d56e45abb)" d="M 256.698062 26.516364 
L 261.653437 26.516364 
" style="fill:none;stroke:#000000;stroke-linecap:square;"/>
   </g>
   <g id="line2d_67"/>
   <g id="line2d_68">
    <path clip-path="url(#p7d56e45abb)" d="M 278.99725 154.081212 
L 278.99725 255.253333 
" style="fill:none;stroke:#000000;stroke-linecap:square;"/>
   </g>
   <g id="line2d_69">
    <path clip-path="url(#p7d56e45abb)" d="M 278.99725 74.90303 
L 278.99725 26.516364 
" style="fill:none;stroke:#000000;stroke-linecap:square;"/>
   </g>
   <g id="line2d_70">
    <path clip-path="url(#p7d56e45abb)" d="M 276.519563 255.253333 
L 281.474938 255.253333 
" style="fill:none;stroke:#000000;stroke-linecap:square;"/>
   </g>
   <g id="line2d_71">
    <path clip-path="url(#p7d56e45abb)" d="M 276.519563 26.516364 
L 281.474938 26.516364 
" style="fill:none;stroke:#000000;stroke-linecap:square;"/>
   </g>
   <g id="line2d_72"/>
   <g id="line2d_73">
    <path clip-path="url(#p7d56e45abb)" d="M 298.81875 79.301818 
L 298.81875 96.89697 
" style="fill:none;stroke:#000000;stroke-linecap:square;"/>
   </g>
   <g id="line2d_74">
    <path clip-path="url(#p7d56e45abb)" d="M 298.81875 61.706667 
L 298.81875 44.111515 
" style="fill:none;stroke:#000000;stroke-linecap:square;"/>
   </g>
   <g id="line2d_75">
    <path clip-path="url(#p7d56e45abb)" d="M 296.341063 96.89697 
L 301.296438 96.89697 
" style="fill:none;stroke:#000000;stroke-linecap:square;"/>
   </g>
   <g id="line2d_76">
    <path clip-path="url(#p7d56e45abb)" d="M 296.341063 44.111515 
L 301.296438 44.111515 
" style="fill:none;stroke:#000000;stroke-linecap:square;"/>
   </g>
   <g id="line2d_77">
    <g clip-path="url(#p7d56e45abb)">
     <use style="fill:none;stroke:#000000;" x="298.81875" xlink:href="#madfb23d414" y="114.492121"/>
     <use style="fill:none;stroke:#000000;" x="298.81875" xlink:href="#madfb23d414" y="114.492121"/>
     <use style="fill:none;stroke:#000000;" x="298.81875" xlink:href="#madfb23d414" y="132.087273"/>
     <use style="fill:none;stroke:#000000;" x="298.81875" xlink:href="#madfb23d414" y="114.492121"/>
     <use style="fill:none;stroke:#000000;" x="298.81875" xlink:href="#madfb23d414" y="26.516364"/>
     <use style="fill:none;stroke:#000000;" x="298.81875" xlink:href="#madfb23d414" y="26.516364"/>
     <use style="fill:none;stroke:#000000;" x="298.81875" xlink:href="#madfb23d414" y="26.516364"/>
     <use style="fill:none;stroke:#000000;" x="298.81875" xlink:href="#madfb23d414" y="26.516364"/>
     <use style="fill:none;stroke:#000000;" x="298.81875" xlink:href="#madfb23d414" y="26.516364"/>
    </g>
   </g>
   <g id="line2d_78">
    <path clip-path="url(#p7d56e45abb)" d="M 318.64025 48.510303 
L 318.64025 79.301818 
" style="fill:none;stroke:#000000;stroke-linecap:square;"/>
   </g>
   <g id="line2d_79">
    <path clip-path="url(#p7d56e45abb)" d="M 318.64025 26.516364 
L 318.64025 26.516364 
" style="fill:none;stroke:#000000;stroke-linecap:square;"/>
   </g>
   <g id="line2d_80">
    <path clip-path="url(#p7d56e45abb)" d="M 316.162563 79.301818 
L 321.117937 79.301818 
" style="fill:none;stroke:#000000;stroke-linecap:square;"/>
   </g>
   <g id="line2d_81">
    <path clip-path="url(#p7d56e45abb)" d="M 316.162563 26.516364 
L 321.117937 26.516364 
" style="fill:none;stroke:#000000;stroke-linecap:square;"/>
   </g>
   <g id="line2d_82"/>
   <g id="line2d_83">
    <path clip-path="url(#p7d56e45abb)" d="M 338.46175 44.111515 
L 338.46175 61.706667 
" style="fill:none;stroke:#000000;stroke-linecap:square;"/>
   </g>
   <g id="line2d_84">
    <path clip-path="url(#p7d56e45abb)" d="M 338.46175 26.516364 
L 338.46175 26.516364 
" style="fill:none;stroke:#000000;stroke-linecap:square;"/>
   </g>
   <g id="line2d_85">
    <path clip-path="url(#p7d56e45abb)" d="M 335.984062 61.706667 
L 340.939437 61.706667 
" style="fill:none;stroke:#000000;stroke-linecap:square;"/>
   </g>
   <g id="line2d_86">
    <path clip-path="url(#p7d56e45abb)" d="M 335.984062 26.516364 
L 340.939437 26.516364 
" style="fill:none;stroke:#000000;stroke-linecap:square;"/>
   </g>
   <g id="line2d_87">
    <g clip-path="url(#p7d56e45abb)">
     <use style="fill:none;stroke:#000000;" x="338.46175" xlink:href="#madfb23d414" y="79.301818"/>
     <use style="fill:none;stroke:#000000;" x="338.46175" xlink:href="#madfb23d414" y="79.301818"/>
    </g>
   </g>
   <g id="line2d_88">
    <path clip-path="url(#p7d56e45abb)" d="M 358.28325 114.492121 
L 358.28325 167.277576 
" style="fill:none;stroke:#000000;stroke-linecap:square;"/>
   </g>
   <g id="line2d_89">
    <path clip-path="url(#p7d56e45abb)" d="M 358.28325 79.301818 
L 358.28325 44.111515 
" style="fill:none;stroke:#000000;stroke-linecap:square;"/>
   </g>
   <g id="line2d_90">
    <path clip-path="url(#p7d56e45abb)" d="M 355.805563 167.277576 
L 360.760938 167.277576 
" style="fill:none;stroke:#000000;stroke-linecap:square;"/>
   </g>
   <g id="line2d_91">
    <path clip-path="url(#p7d56e45abb)" d="M 355.805563 44.111515 
L 360.760938 44.111515 
" style="fill:none;stroke:#000000;stroke-linecap:square;"/>
   </g>
   <g id="line2d_92">
    <g clip-path="url(#p7d56e45abb)">
     <use style="fill:none;stroke:#000000;" x="358.28325" xlink:href="#madfb23d414" y="184.872727"/>
     <use style="fill:none;stroke:#000000;" x="358.28325" xlink:href="#madfb23d414" y="184.872727"/>
     <use style="fill:none;stroke:#000000;" x="358.28325" xlink:href="#madfb23d414" y="184.872727"/>
    </g>
   </g>
   <g id="line2d_93">
    <path clip-path="url(#p7d56e45abb)" d="M 378.10475 220.06303 
L 378.10475 290.443636 
" style="fill:none;stroke:#000000;stroke-linecap:square;"/>
   </g>
   <g id="line2d_94">
    <path clip-path="url(#p7d56e45abb)" d="M 378.10475 149.682424 
L 378.10475 61.706667 
" style="fill:none;stroke:#000000;stroke-linecap:square;"/>
   </g>
   <g id="line2d_95">
    <path clip-path="url(#p7d56e45abb)" d="M 375.627063 290.443636 
L 380.582438 290.443636 
" style="fill:none;stroke:#000000;stroke-linecap:square;"/>
   </g>
   <g id="line2d_96">
    <path clip-path="url(#p7d56e45abb)" d="M 375.627063 61.706667 
L 380.582438 61.706667 
" style="fill:none;stroke:#000000;stroke-linecap:square;"/>
   </g>
   <g id="line2d_97"/>
   <g id="line2d_98">
    <path clip-path="url(#p7d56e45abb)" d="M 397.92625 132.087273 
L 397.92625 149.682424 
" style="fill:none;stroke:#000000;stroke-linecap:square;"/>
   </g>
   <g id="line2d_99">
    <path clip-path="url(#p7d56e45abb)" d="M 397.92625 114.492121 
L 397.92625 96.89697 
" style="fill:none;stroke:#000000;stroke-linecap:square;"/>
   </g>
   <g id="line2d_100">
    <path clip-path="url(#p7d56e45abb)" d="M 395.448563 149.682424 
L 400.403937 149.682424 
" style="fill:none;stroke:#000000;stroke-linecap:square;"/>
   </g>
   <g id="line2d_101">
    <path clip-path="url(#p7d56e45abb)" d="M 395.448563 96.89697 
L 400.403937 96.89697 
" style="fill:none;stroke:#000000;stroke-linecap:square;"/>
   </g>
   <g id="line2d_102">
    <g clip-path="url(#p7d56e45abb)">
     <use style="fill:none;stroke:#000000;" x="397.92625" xlink:href="#madfb23d414" y="167.277576"/>
     <use style="fill:none;stroke:#000000;" x="397.92625" xlink:href="#madfb23d414" y="184.872727"/>
     <use style="fill:none;stroke:#000000;" x="397.92625" xlink:href="#madfb23d414" y="79.301818"/>
     <use style="fill:none;stroke:#000000;" x="397.92625" xlink:href="#madfb23d414" y="79.301818"/>
     <use style="fill:none;stroke:#000000;" x="397.92625" xlink:href="#madfb23d414" y="79.301818"/>
     <use style="fill:none;stroke:#000000;" x="397.92625" xlink:href="#madfb23d414" y="79.301818"/>
     <use style="fill:none;stroke:#000000;" x="397.92625" xlink:href="#madfb23d414" y="79.301818"/>
     <use style="fill:none;stroke:#000000;" x="397.92625" xlink:href="#madfb23d414" y="61.706667"/>
     <use style="fill:none;stroke:#000000;" x="397.92625" xlink:href="#madfb23d414" y="61.706667"/>
     <use style="fill:none;stroke:#000000;" x="397.92625" xlink:href="#madfb23d414" y="79.301818"/>
     <use style="fill:none;stroke:#000000;" x="397.92625" xlink:href="#madfb23d414" y="79.301818"/>
     <use style="fill:none;stroke:#000000;" x="397.92625" xlink:href="#madfb23d414" y="61.706667"/>
    </g>
   </g>
   <g id="line2d_103">
    <path clip-path="url(#p7d56e45abb)" d="M 417.74775 79.301818 
L 417.74775 132.087273 
" style="fill:none;stroke:#000000;stroke-linecap:square;"/>
   </g>
   <g id="line2d_104">
    <path clip-path="url(#p7d56e45abb)" d="M 417.74775 44.111515 
L 417.74775 26.516364 
" style="fill:none;stroke:#000000;stroke-linecap:square;"/>
   </g>
   <g id="line2d_105">
    <path clip-path="url(#p7d56e45abb)" d="M 415.270062 132.087273 
L 420.225437 132.087273 
" style="fill:none;stroke:#000000;stroke-linecap:square;"/>
   </g>
   <g id="line2d_106">
    <path clip-path="url(#p7d56e45abb)" d="M 415.270062 26.516364 
L 420.225437 26.516364 
" style="fill:none;stroke:#000000;stroke-linecap:square;"/>
   </g>
   <g id="line2d_107">
    <g clip-path="url(#p7d56e45abb)">
     <use style="fill:none;stroke:#000000;" x="417.74775" xlink:href="#madfb23d414" y="149.682424"/>
    </g>
   </g>
   <g id="line2d_108">
    <path clip-path="url(#p7d56e45abb)" d="M 437.56925 61.706667 
L 437.56925 114.492121 
" style="fill:none;stroke:#000000;stroke-linecap:square;"/>
   </g>
   <g id="line2d_109">
    <path clip-path="url(#p7d56e45abb)" d="M 437.56925 26.516364 
L 437.56925 26.516364 
" style="fill:none;stroke:#000000;stroke-linecap:square;"/>
   </g>
   <g id="line2d_110">
    <path clip-path="url(#p7d56e45abb)" d="M 435.091563 114.492121 
L 440.046938 114.492121 
" style="fill:none;stroke:#000000;stroke-linecap:square;"/>
   </g>
   <g id="line2d_111">
    <path clip-path="url(#p7d56e45abb)" d="M 435.091563 26.516364 
L 440.046938 26.516364 
" style="fill:none;stroke:#000000;stroke-linecap:square;"/>
   </g>
   <g id="line2d_112">
    <g clip-path="url(#p7d56e45abb)">
     <use style="fill:none;stroke:#000000;" x="437.56925" xlink:href="#madfb23d414" y="132.087273"/>
     <use style="fill:none;stroke:#000000;" x="437.56925" xlink:href="#madfb23d414" y="167.277576"/>
     <use style="fill:none;stroke:#000000;" x="437.56925" xlink:href="#madfb23d414" y="132.087273"/>
     <use style="fill:none;stroke:#000000;" x="437.56925" xlink:href="#madfb23d414" y="167.277576"/>
    </g>
   </g>
   <g id="patch_3">
    <path clip-path="url(#p7d56e45abb)" d="M 56.005375 26.516364 
L 65.916125 26.516364 
L 65.916125 26.516364 
L 56.005375 26.516364 
L 56.005375 26.516364 
z
" style="fill:#00ffff;stroke:#000000;stroke-linejoin:miter;"/>
   </g>
   <g id="patch_4">
    <path clip-path="url(#p7d56e45abb)" d="M 75.826875 26.516364 
L 85.737625 26.516364 
L 85.737625 26.516364 
L 75.826875 26.516364 
L 75.826875 26.516364 
z
" style="fill:#add8e6;stroke:#000000;stroke-linejoin:miter;"/>
   </g>
   <g id="patch_5">
    <path clip-path="url(#p7d56e45abb)" d="M 95.648375 26.516364 
L 105.559125 26.516364 
L 105.559125 26.516364 
L 95.648375 26.516364 
L 95.648375 26.516364 
z
" style="fill:#90ee90;stroke:#000000;stroke-linejoin:miter;"/>
   </g>
   <g id="patch_6">
    <path clip-path="url(#p7d56e45abb)" d="M 115.469875 26.516364 
L 125.380625 26.516364 
L 125.380625 26.516364 
L 115.469875 26.516364 
L 115.469875 26.516364 
z
" style="fill:#d2b48c;stroke:#000000;stroke-linejoin:miter;"/>
   </g>
   <g id="patch_7">
    <path clip-path="url(#p7d56e45abb)" d="M 135.291375 44.111515 
L 145.202125 44.111515 
L 145.202125 26.516364 
L 135.291375 26.516364 
L 135.291375 44.111515 
z
" style="fill:#ff0000;stroke:#000000;stroke-linejoin:miter;"/>
   </g>
   <g id="patch_8">
    <path clip-path="url(#p7d56e45abb)" d="M 155.112875 30.915152 
L 165.023625 30.915152 
L 165.023625 26.516364 
L 155.112875 26.516364 
L 155.112875 30.915152 
z
" style="fill:#00ffff;stroke:#000000;stroke-linejoin:miter;"/>
   </g>
   <g id="patch_9">
    <path clip-path="url(#p7d56e45abb)" d="M 174.934375 79.301818 
L 184.845125 79.301818 
L 184.845125 26.516364 
L 174.934375 26.516364 
L 174.934375 79.301818 
z
" style="fill:#add8e6;stroke:#000000;stroke-linejoin:miter;"/>
   </g>
   <g id="patch_10">
    <path clip-path="url(#p7d56e45abb)" d="M 194.755875 44.111515 
L 204.666625 44.111515 
L 204.666625 26.516364 
L 194.755875 26.516364 
L 194.755875 44.111515 
z
" style="fill:#90ee90;stroke:#000000;stroke-linejoin:miter;"/>
   </g>
   <g id="patch_11">
    <path clip-path="url(#p7d56e45abb)" d="M 214.577375 30.915152 
L 224.488125 30.915152 
L 224.488125 26.516364 
L 214.577375 26.516364 
L 214.577375 30.915152 
z
" style="fill:#d2b48c;stroke:#000000;stroke-linejoin:miter;"/>
   </g>
   <g id="patch_12">
    <path clip-path="url(#p7d56e45abb)" d="M 234.398875 44.111515 
L 244.309625 44.111515 
L 244.309625 26.516364 
L 234.398875 26.516364 
L 234.398875 44.111515 
z
" style="fill:#ff0000;stroke:#000000;stroke-linejoin:miter;"/>
   </g>
   <g id="patch_13">
    <path clip-path="url(#p7d56e45abb)" d="M 254.220375 114.492121 
L 264.131125 114.492121 
L 264.131125 44.111515 
L 254.220375 44.111515 
L 254.220375 114.492121 
z
" style="fill:#00ffff;stroke:#000000;stroke-linejoin:miter;"/>
   </g>
   <g id="patch_14">
    <path clip-path="url(#p7d56e45abb)" d="M 274.041875 154.081212 
L 283.952625 154.081212 
L 283.952625 74.90303 
L 274.041875 74.90303 
L 274.041875 154.081212 
z
" style="fill:#add8e6;stroke:#000000;stroke-linejoin:miter;"/>
   </g>
   <g id="patch_15">
    <path clip-path="url(#p7d56e45abb)" d="M 293.863375 79.301818 
L 303.774125 79.301818 
L 303.774125 61.706667 
L 293.863375 61.706667 
L 293.863375 79.301818 
z
" style="fill:#90ee90;stroke:#000000;stroke-linejoin:miter;"/>
   </g>
   <g id="patch_16">
    <path clip-path="url(#p7d56e45abb)" d="M 313.684875 48.510303 
L 323.595625 48.510303 
L 323.595625 26.516364 
L 313.684875 26.516364 
L 313.684875 48.510303 
z
" style="fill:#d2b48c;stroke:#000000;stroke-linejoin:miter;"/>
   </g>
   <g id="patch_17">
    <path clip-path="url(#p7d56e45abb)" d="M 333.506375 44.111515 
L 343.417125 44.111515 
L 343.417125 26.516364 
L 333.506375 26.516364 
L 333.506375 44.111515 
z
" style="fill:#ff0000;stroke:#000000;stroke-linejoin:miter;"/>
   </g>
   <g id="patch_18">
    <path clip-path="url(#p7d56e45abb)" d="M 353.327875 114.492121 
L 363.238625 114.492121 
L 363.238625 79.301818 
L 353.327875 79.301818 
L 353.327875 114.492121 
z
" style="fill:#00ffff;stroke:#000000;stroke-linejoin:miter;"/>
   </g>
   <g id="patch_19">
    <path clip-path="url(#p7d56e45abb)" d="M 373.149375 220.06303 
L 383.060125 220.06303 
L 383.060125 149.682424 
L 373.149375 149.682424 
L 373.149375 220.06303 
z
" style="fill:#add8e6;stroke:#000000;stroke-linejoin:miter;"/>
   </g>
   <g id="patch_20">
    <path clip-path="url(#p7d56e45abb)" d="M 392.970875 132.087273 
L 402.881625 132.087273 
L 402.881625 114.492121 
L 392.970875 114.492121 
L 392.970875 132.087273 
z
" style="fill:#90ee90;stroke:#000000;stroke-linejoin:miter;"/>
   </g>
   <g id="patch_21">
    <path clip-path="url(#p7d56e45abb)" d="M 412.792375 79.301818 
L 422.703125 79.301818 
L 422.703125 44.111515 
L 412.792375 44.111515 
L 412.792375 79.301818 
z
" style="fill:#d2b48c;stroke:#000000;stroke-linejoin:miter;"/>
   </g>
   <g id="patch_22">
    <path clip-path="url(#p7d56e45abb)" d="M 432.613875 61.706667 
L 442.524625 61.706667 
L 442.524625 26.516364 
L 432.613875 26.516364 
L 432.613875 61.706667 
z
" style="fill:#ff0000;stroke:#000000;stroke-linejoin:miter;"/>
   </g>
   <g id="line2d_113">
    <path clip-path="url(#p7d56e45abb)" d="M 56.005375 26.516364 
L 65.916125 26.516364 
" style="fill:none;stroke:#ff7f0e;stroke-linecap:square;"/>
   </g>
   <g id="line2d_114">
    <path clip-path="url(#p7d56e45abb)" d="M 60.96075 32.289773 
" style="fill:none;stroke:#2ca02c;stroke-dasharray:3.7,1.6;stroke-dashoffset:0;"/>
    <defs>
     <path d="M 0 -3 
L -3 3 
L 3 3 
z
" id="ma2464f6140" style="stroke:#2ca02c;stroke-linejoin:miter;"/>
    </defs>
    <g clip-path="url(#p7d56e45abb)">
     <use style="fill:#2ca02c;stroke:#2ca02c;stroke-linejoin:miter;" x="60.96075" xlink:href="#ma2464f6140" y="32.289773"/>
    </g>
   </g>
   <g id="line2d_115">
    <path clip-path="url(#p7d56e45abb)" d="M 75.826875 26.516364 
L 85.737625 26.516364 
" style="fill:none;stroke:#ff7f0e;stroke-linecap:square;"/>
   </g>
   <g id="line2d_116">
    <path clip-path="url(#p7d56e45abb)" d="M 80.78225 31.190076 
" style="fill:none;stroke:#2ca02c;stroke-dasharray:3.7,1.6;stroke-dashoffset:0;"/>
    <g clip-path="url(#p7d56e45abb)">
     <use style="fill:#2ca02c;stroke:#2ca02c;stroke-linejoin:miter;" x="80.78225" xlink:href="#ma2464f6140" y="31.190076"/>
    </g>
   </g>
   <g id="line2d_117">
    <path clip-path="url(#p7d56e45abb)" d="M 95.648375 26.516364 
L 105.559125 26.516364 
" style="fill:none;stroke:#ff7f0e;stroke-linecap:square;"/>
   </g>
   <g id="line2d_118">
    <path clip-path="url(#p7d56e45abb)" d="M 100.60375 31.465 
" style="fill:none;stroke:#2ca02c;stroke-dasharray:3.7,1.6;stroke-dashoffset:0;"/>
    <g clip-path="url(#p7d56e45abb)">
     <use style="fill:#2ca02c;stroke:#2ca02c;stroke-linejoin:miter;" x="100.60375" xlink:href="#ma2464f6140" y="31.465"/>
    </g>
   </g>
   <g id="line2d_119">
    <path clip-path="url(#p7d56e45abb)" d="M 115.469875 26.516364 
L 125.380625 26.516364 
" style="fill:none;stroke:#ff7f0e;stroke-linecap:square;"/>
   </g>
   <g id="line2d_120">
    <path clip-path="url(#p7d56e45abb)" d="M 120.42525 31.190076 
" style="fill:none;stroke:#2ca02c;stroke-dasharray:3.7,1.6;stroke-dashoffset:0;"/>
    <g clip-path="url(#p7d56e45abb)">
     <use style="fill:#2ca02c;stroke:#2ca02c;stroke-linejoin:miter;" x="120.42525" xlink:href="#ma2464f6140" y="31.190076"/>
    </g>
   </g>
   <g id="line2d_121">
    <path clip-path="url(#p7d56e45abb)" d="M 135.291375 26.516364 
L 145.202125 26.516364 
" style="fill:none;stroke:#ff7f0e;stroke-linecap:square;"/>
   </g>
   <g id="line2d_122">
    <path clip-path="url(#p7d56e45abb)" d="M 140.24675 33.939318 
" style="fill:none;stroke:#2ca02c;stroke-dasharray:3.7,1.6;stroke-dashoffset:0;"/>
    <g clip-path="url(#p7d56e45abb)">
     <use style="fill:#2ca02c;stroke:#2ca02c;stroke-linejoin:miter;" x="140.24675" xlink:href="#ma2464f6140" y="33.939318"/>
    </g>
   </g>
   <g id="line2d_123">
    <path clip-path="url(#p7d56e45abb)" d="M 155.112875 26.516364 
L 165.023625 26.516364 
" style="fill:none;stroke:#ff7f0e;stroke-linecap:square;"/>
   </g>
   <g id="line2d_124">
    <path clip-path="url(#p7d56e45abb)" d="M 160.06825 32.564697 
" style="fill:none;stroke:#2ca02c;stroke-dasharray:3.7,1.6;stroke-dashoffset:0;"/>
    <g clip-path="url(#p7d56e45abb)">
     <use style="fill:#2ca02c;stroke:#2ca02c;stroke-linejoin:miter;" x="160.06825" xlink:href="#ma2464f6140" y="32.564697"/>
    </g>
   </g>
   <g id="line2d_125">
    <path clip-path="url(#p7d56e45abb)" d="M 174.934375 52.909091 
L 184.845125 52.909091 
" style="fill:none;stroke:#ff7f0e;stroke-linecap:square;"/>
   </g>
   <g id="line2d_126">
    <path clip-path="url(#p7d56e45abb)" d="M 179.88975 57.032955 
" style="fill:none;stroke:#2ca02c;stroke-dasharray:3.7,1.6;stroke-dashoffset:0;"/>
    <g clip-path="url(#p7d56e45abb)">
     <use style="fill:#2ca02c;stroke:#2ca02c;stroke-linejoin:miter;" x="179.88975" xlink:href="#ma2464f6140" y="57.032955"/>
    </g>
   </g>
   <g id="line2d_127">
    <path clip-path="url(#p7d56e45abb)" d="M 194.755875 26.516364 
L 204.666625 26.516364 
" style="fill:none;stroke:#ff7f0e;stroke-linecap:square;"/>
   </g>
   <g id="line2d_128">
    <path clip-path="url(#p7d56e45abb)" d="M 199.71125 33.114545 
" style="fill:none;stroke:#2ca02c;stroke-dasharray:3.7,1.6;stroke-dashoffset:0;"/>
    <g clip-path="url(#p7d56e45abb)">
     <use style="fill:#2ca02c;stroke:#2ca02c;stroke-linejoin:miter;" x="199.71125" xlink:href="#ma2464f6140" y="33.114545"/>
    </g>
   </g>
   <g id="line2d_129">
    <path clip-path="url(#p7d56e45abb)" d="M 214.577375 26.516364 
L 224.488125 26.516364 
" style="fill:none;stroke:#ff7f0e;stroke-linecap:square;"/>
   </g>
   <g id="line2d_130">
    <path clip-path="url(#p7d56e45abb)" d="M 219.53275 31.465 
" style="fill:none;stroke:#2ca02c;stroke-dasharray:3.7,1.6;stroke-dashoffset:0;"/>
    <g clip-path="url(#p7d56e45abb)">
     <use style="fill:#2ca02c;stroke:#2ca02c;stroke-linejoin:miter;" x="219.53275" xlink:href="#ma2464f6140" y="31.465"/>
    </g>
   </g>
   <g id="line2d_131">
    <path clip-path="url(#p7d56e45abb)" d="M 234.398875 26.516364 
L 244.309625 26.516364 
" style="fill:none;stroke:#ff7f0e;stroke-linecap:square;"/>
   </g>
   <g id="line2d_132">
    <path clip-path="url(#p7d56e45abb)" d="M 239.35425 34.489167 
" style="fill:none;stroke:#2ca02c;stroke-dasharray:3.7,1.6;stroke-dashoffset:0;"/>
    <g clip-path="url(#p7d56e45abb)">
     <use style="fill:#2ca02c;stroke:#2ca02c;stroke-linejoin:miter;" x="239.35425" xlink:href="#ma2464f6140" y="34.489167"/>
    </g>
   </g>
   <g id="line2d_133">
    <path clip-path="url(#p7d56e45abb)" d="M 254.220375 79.301818 
L 264.131125 79.301818 
" style="fill:none;stroke:#ff7f0e;stroke-linecap:square;"/>
   </g>
   <g id="line2d_134">
    <path clip-path="url(#p7d56e45abb)" d="M 259.17575 77.377348 
" style="fill:none;stroke:#2ca02c;stroke-dasharray:3.7,1.6;stroke-dashoffset:0;"/>
    <g clip-path="url(#p7d56e45abb)">
     <use style="fill:#2ca02c;stroke:#2ca02c;stroke-linejoin:miter;" x="259.17575" xlink:href="#ma2464f6140" y="77.377348"/>
    </g>
   </g>
   <g id="line2d_135">
    <path clip-path="url(#p7d56e45abb)" d="M 274.041875 114.492121 
L 283.952625 114.492121 
" style="fill:none;stroke:#ff7f0e;stroke-linecap:square;"/>
   </g>
   <g id="line2d_136">
    <path clip-path="url(#p7d56e45abb)" d="M 278.99725 113.392424 
" style="fill:none;stroke:#2ca02c;stroke-dasharray:3.7,1.6;stroke-dashoffset:0;"/>
    <g clip-path="url(#p7d56e45abb)">
     <use style="fill:#2ca02c;stroke:#2ca02c;stroke-linejoin:miter;" x="278.99725" xlink:href="#ma2464f6140" y="113.392424"/>
    </g>
   </g>
   <g id="line2d_137">
    <path clip-path="url(#p7d56e45abb)" d="M 293.863375 61.706667 
L 303.774125 61.706667 
" style="fill:none;stroke:#ff7f0e;stroke-linecap:square;"/>
   </g>
   <g id="line2d_138">
    <path clip-path="url(#p7d56e45abb)" d="M 298.81875 69.954394 
" style="fill:none;stroke:#2ca02c;stroke-dasharray:3.7,1.6;stroke-dashoffset:0;"/>
    <g clip-path="url(#p7d56e45abb)">
     <use style="fill:#2ca02c;stroke:#2ca02c;stroke-linejoin:miter;" x="298.81875" xlink:href="#ma2464f6140" y="69.954394"/>
    </g>
   </g>
   <g id="line2d_139">
    <path clip-path="url(#p7d56e45abb)" d="M 313.684875 35.313939 
L 323.595625 35.313939 
" style="fill:none;stroke:#ff7f0e;stroke-linecap:square;"/>
   </g>
   <g id="line2d_140">
    <path clip-path="url(#p7d56e45abb)" d="M 318.64025 40.5375 
" style="fill:none;stroke:#2ca02c;stroke-dasharray:3.7,1.6;stroke-dashoffset:0;"/>
    <g clip-path="url(#p7d56e45abb)">
     <use style="fill:#2ca02c;stroke:#2ca02c;stroke-linejoin:miter;" x="318.64025" xlink:href="#ma2464f6140" y="40.5375"/>
    </g>
   </g>
   <g id="line2d_141">
    <path clip-path="url(#p7d56e45abb)" d="M 333.506375 26.516364 
L 343.417125 26.516364 
" style="fill:none;stroke:#ff7f0e;stroke-linecap:square;"/>
   </g>
   <g id="line2d_142">
    <path clip-path="url(#p7d56e45abb)" d="M 338.46175 35.863788 
" style="fill:none;stroke:#2ca02c;stroke-dasharray:3.7,1.6;stroke-dashoffset:0;"/>
    <g clip-path="url(#p7d56e45abb)">
     <use style="fill:#2ca02c;stroke:#2ca02c;stroke-linejoin:miter;" x="338.46175" xlink:href="#ma2464f6140" y="35.863788"/>
    </g>
   </g>
   <g id="line2d_143">
    <path clip-path="url(#p7d56e45abb)" d="M 353.327875 114.492121 
L 363.238625 114.492121 
" style="fill:none;stroke:#ff7f0e;stroke-linecap:square;"/>
   </g>
   <g id="line2d_144">
    <path clip-path="url(#p7d56e45abb)" d="M 358.28325 108.443788 
" style="fill:none;stroke:#2ca02c;stroke-dasharray:3.7,1.6;stroke-dashoffset:0;"/>
    <g clip-path="url(#p7d56e45abb)">
     <use style="fill:#2ca02c;stroke:#2ca02c;stroke-linejoin:miter;" x="358.28325" xlink:href="#ma2464f6140" y="108.443788"/>
    </g>
   </g>
   <g id="line2d_145">
    <path clip-path="url(#p7d56e45abb)" d="M 373.149375 184.872727 
L 383.060125 184.872727 
" style="fill:none;stroke:#ff7f0e;stroke-linecap:square;"/>
   </g>
   <g id="line2d_146">
    <path clip-path="url(#p7d56e45abb)" d="M 378.10475 183.77303 
" style="fill:none;stroke:#2ca02c;stroke-dasharray:3.7,1.6;stroke-dashoffset:0;"/>
    <g clip-path="url(#p7d56e45abb)">
     <use style="fill:#2ca02c;stroke:#2ca02c;stroke-linejoin:miter;" x="378.10475" xlink:href="#ma2464f6140" y="183.77303"/>
    </g>
   </g>
   <g id="line2d_147">
    <path clip-path="url(#p7d56e45abb)" d="M 392.970875 114.492121 
L 402.881625 114.492121 
" style="fill:none;stroke:#ff7f0e;stroke-linecap:square;"/>
   </g>
   <g id="line2d_148">
    <path clip-path="url(#p7d56e45abb)" d="M 397.92625 115.591818 
" style="fill:none;stroke:#2ca02c;stroke-dasharray:3.7,1.6;stroke-dashoffset:0;"/>
    <g clip-path="url(#p7d56e45abb)">
     <use style="fill:#2ca02c;stroke:#2ca02c;stroke-linejoin:miter;" x="397.92625" xlink:href="#ma2464f6140" y="115.591818"/>
    </g>
   </g>
   <g id="line2d_149">
    <path clip-path="url(#p7d56e45abb)" d="M 412.792375 61.706667 
L 422.703125 61.706667 
" style="fill:none;stroke:#ff7f0e;stroke-linecap:square;"/>
   </g>
   <g id="line2d_150">
    <path clip-path="url(#p7d56e45abb)" d="M 417.74775 65.280682 
" style="fill:none;stroke:#2ca02c;stroke-dasharray:3.7,1.6;stroke-dashoffset:0;"/>
    <g clip-path="url(#p7d56e45abb)">
     <use style="fill:#2ca02c;stroke:#2ca02c;stroke-linejoin:miter;" x="417.74775" xlink:href="#ma2464f6140" y="65.280682"/>
    </g>
   </g>
   <g id="line2d_151">
    <path clip-path="url(#p7d56e45abb)" d="M 432.613875 44.111515 
L 442.524625 44.111515 
" style="fill:none;stroke:#ff7f0e;stroke-linecap:square;"/>
   </g>
   <g id="line2d_152">
    <path clip-path="url(#p7d56e45abb)" d="M 437.56925 54.833561 
" style="fill:none;stroke:#2ca02c;stroke-dasharray:3.7,1.6;stroke-dashoffset:0;"/>
    <g clip-path="url(#p7d56e45abb)">
     <use style="fill:#2ca02c;stroke:#2ca02c;stroke-linejoin:miter;" x="437.56925" xlink:href="#ma2464f6140" y="54.833561"/>
    </g>
   </g>
   <g id="patch_23">
    <path d="M 51.05 303.64 
L 51.05 13.32 
" style="fill:none;stroke:#000000;stroke-linecap:square;stroke-linejoin:miter;stroke-width:0.8;"/>
   </g>
   <g id="patch_24">
    <path d="M 447.48 303.64 
L 447.48 13.32 
" style="fill:none;stroke:#000000;stroke-linecap:square;stroke-linejoin:miter;stroke-width:0.8;"/>
   </g>
   <g id="patch_25">
    <path d="M 51.05 303.64 
L 447.48 303.64 
" style="fill:none;stroke:#000000;stroke-linecap:square;stroke-linejoin:miter;stroke-width:0.8;"/>
   </g>
   <g id="patch_26">
    <path d="M 51.05 13.32 
L 447.48 13.32 
" style="fill:none;stroke:#000000;stroke-linecap:square;stroke-linejoin:miter;stroke-width:0.8;"/>
   </g>
   <g id="legend_1">
    <g id="patch_27">
     <path d="M 58.05 298.64 
L 116.05 298.64 
Q 118.05 298.64 118.05 296.64 
L 118.05 217.94 
Q 118.05 215.94 116.05 215.94 
L 58.05 215.94 
Q 56.05 215.94 56.05 217.94 
L 56.05 296.64 
Q 56.05 298.64 58.05 298.64 
z
" style="fill:#ffffff;opacity:0.8;stroke:#cccccc;stroke-linejoin:miter;"/>
    </g>
    <g id="patch_28">
     <path d="M 60.05 229.14 
L 80.05 229.14 
L 80.05 222.14 
L 60.05 222.14 
z
" style="fill:#00ffff;stroke:#00ffff;stroke-linejoin:miter;"/>
    </g>
    <g id="text_15">
     <!-- $y^{dmg}$ -->
     <defs>
      <path d="M 24.8125 -5.078125 
Q 18.5625 -15.578125 14.625 -18.1875 
Q 10.6875 -20.796875 4.59375 -20.796875 
L -2.484375 -20.796875 
L -0.984375 -13.28125 
L 4.203125 -13.28125 
Q 7.953125 -13.28125 10.59375 -11.234375 
Q 13.234375 -9.1875 16.5 -3.21875 
L 19.28125 2 
L 7.171875 54.6875 
L 16.703125 54.6875 
L 25.78125 12.796875 
L 50.875 54.6875 
L 60.296875 54.6875 
z
" id="DejaVuSans-Oblique-79"/>
      <path d="M 41.796875 8.203125 
Q 38.1875 3.46875 33.25 1.015625 
Q 28.328125 -1.421875 22.3125 -1.421875 
Q 14.109375 -1.421875 9.34375 4.171875 
Q 4.59375 9.765625 4.59375 19.484375 
Q 4.59375 27.59375 7.46875 34.9375 
Q 10.359375 42.28125 15.828125 48.09375 
Q 19.4375 51.953125 23.96875 53.96875 
Q 28.515625 56 33.5 56 
Q 38.765625 56 42.796875 53.453125 
Q 46.828125 50.921875 49.03125 46.1875 
L 54.890625 75.984375 
L 63.921875 75.984375 
L 49.125 0 
L 40.09375 0 
z
M 13.921875 21.09375 
Q 13.921875 14.015625 17.109375 10.0625 
Q 20.3125 6.109375 25.984375 6.109375 
Q 30.171875 6.109375 33.765625 8.125 
Q 37.359375 10.15625 40.09375 14.109375 
Q 42.96875 18.21875 44.625 23.578125 
Q 46.296875 28.953125 46.296875 34.1875 
Q 46.296875 40.96875 43.09375 44.765625 
Q 39.890625 48.578125 34.28125 48.578125 
Q 30.03125 48.578125 26.359375 46.578125 
Q 22.703125 44.578125 20.125 40.828125 
Q 17.28125 36.765625 15.59375 31.390625 
Q 13.921875 26.03125 13.921875 21.09375 
z
" id="DejaVuSans-Oblique-64"/>
      <path d="M 89.796875 33.015625 
L 83.40625 0 
L 74.421875 0 
L 80.71875 32.71875 
Q 81.109375 34.8125 81.296875 36.328125 
Q 81.5 37.84375 81.5 38.921875 
Q 81.5 43.3125 79.046875 45.75 
Q 76.609375 48.1875 72.21875 48.1875 
Q 65.671875 48.1875 60.546875 43.28125 
Q 55.421875 38.375 53.90625 30.515625 
L 47.90625 0 
L 38.921875 0 
L 45.3125 32.71875 
Q 45.703125 34.515625 45.890625 36.046875 
Q 46.09375 37.59375 46.09375 38.8125 
Q 46.09375 43.265625 43.65625 45.71875 
Q 41.21875 48.1875 36.921875 48.1875 
Q 30.28125 48.1875 25.140625 43.28125 
Q 20.015625 38.375 18.5 30.515625 
L 12.5 0 
L 3.515625 0 
L 14.203125 54.6875 
L 23.1875 54.6875 
L 21.484375 46.1875 
Q 25.140625 50.984375 30.046875 53.484375 
Q 34.96875 56 40.578125 56 
Q 46.53125 56 50.359375 52.875 
Q 54.203125 49.75 54.984375 44.1875 
Q 59.078125 49.953125 64.46875 52.96875 
Q 69.875 56 75.875 56 
Q 82.90625 56 86.734375 51.953125 
Q 90.578125 47.90625 90.578125 40.484375 
Q 90.578125 38.875 90.375 36.9375 
Q 90.1875 35.015625 89.796875 33.015625 
z
" id="DejaVuSans-Oblique-6d"/>
      <path d="M 59.625 54.6875 
L 50.296875 6.78125 
Q 47.609375 -7.125 40.015625 -13.953125 
Q 32.421875 -20.796875 19.578125 -20.796875 
Q 14.84375 -20.796875 10.78125 -20.09375 
Q 6.734375 -19.390625 3.21875 -17.921875 
L 4.890625 -9.1875 
Q 8.203125 -11.328125 11.90625 -12.34375 
Q 15.625 -13.375 19.828125 -13.375 
Q 28.375 -13.375 33.859375 -8.703125 
Q 39.359375 -4.046875 41.109375 4.6875 
L 41.890625 8.796875 
Q 38.140625 4.5 33.15625 2.25 
Q 28.171875 0 22.40625 0 
Q 14.109375 0 9.34375 5.484375 
Q 4.59375 10.984375 4.59375 20.609375 
Q 4.59375 28.171875 7.46875 35.421875 
Q 10.359375 42.671875 15.578125 48.296875 
Q 19.046875 52 23.65625 54 
Q 28.265625 56 33.296875 56 
Q 38.8125 56 42.90625 53.4375 
Q 47.015625 50.875 49.03125 46.1875 
L 50.59375 54.6875 
z
M 46.09375 34.625 
Q 46.09375 41.265625 42.96875 44.875 
Q 39.84375 48.484375 34.078125 48.484375 
Q 30.515625 48.484375 27.296875 47.0625 
Q 24.078125 45.65625 21.78125 43.109375 
Q 18.0625 38.921875 15.984375 33.234375 
Q 13.921875 27.546875 13.921875 21.484375 
Q 13.921875 14.75 17.0625 11.125 
Q 20.21875 7.515625 26.125 7.515625 
Q 34.671875 7.515625 40.375 15.25 
Q 46.09375 23 46.09375 34.625 
z
" id="DejaVuSans-Oblique-67"/>
     </defs>
     <g transform="translate(88.05 229.14)scale(0.1 -0.1)">
      <use transform="translate(0 0.529687)" xlink:href="#DejaVuSans-Oblique-79"/>
      <use transform="translate(63.645833 38.810937)scale(0.7)" xlink:href="#DejaVuSans-Oblique-64"/>
      <use transform="translate(108.079427 38.810937)scale(0.7)" xlink:href="#DejaVuSans-Oblique-6d"/>
      <use transform="translate(176.267904 38.810937)scale(0.7)" xlink:href="#DejaVuSans-Oblique-67"/>
     </g>
    </g>
    <g id="patch_29">
     <path d="M 60.05 244.04 
L 80.05 244.04 
L 80.05 237.04 
L 60.05 237.04 
z
" style="fill:#add8e6;stroke:#add8e6;stroke-linejoin:miter;"/>
    </g>
    <g id="text_16">
     <!-- $y^{re}_{L2}$ -->
     <defs>
      <path d="M 44.578125 46.390625 
Q 43.21875 47.125 41.453125 47.515625 
Q 39.703125 47.90625 37.703125 47.90625 
Q 30.515625 47.90625 25.140625 42.453125 
Q 19.78125 37.015625 18.015625 27.875 
L 12.5 0 
L 3.515625 0 
L 14.203125 54.6875 
L 23.1875 54.6875 
L 21.484375 46.1875 
Q 25.046875 50.921875 30 53.453125 
Q 34.96875 56 40.578125 56 
Q 42.046875 56 43.453125 55.828125 
Q 44.875 55.671875 46.296875 55.28125 
z
" id="DejaVuSans-Oblique-72"/>
      <path d="M 48.09375 32.234375 
Q 48.25 33.015625 48.3125 33.84375 
Q 48.390625 34.671875 48.390625 35.5 
Q 48.390625 41.453125 44.890625 44.921875 
Q 41.40625 48.390625 35.40625 48.390625 
Q 28.71875 48.390625 23.578125 44.15625 
Q 18.453125 39.9375 15.828125 32.171875 
z
M 55.90625 25.203125 
L 14.109375 25.203125 
Q 13.8125 23.34375 13.71875 22.265625 
Q 13.625 21.1875 13.625 20.40625 
Q 13.625 13.625 17.796875 9.90625 
Q 21.96875 6.203125 29.59375 6.203125 
Q 35.453125 6.203125 40.671875 7.515625 
Q 45.90625 8.84375 50.390625 11.375 
L 48.6875 2.484375 
Q 43.84375 0.53125 38.6875 -0.4375 
Q 33.546875 -1.421875 28.21875 -1.421875 
Q 16.84375 -1.421875 10.71875 4.015625 
Q 4.59375 9.46875 4.59375 19.484375 
Q 4.59375 28.03125 7.640625 35.375 
Q 10.6875 42.71875 16.609375 48.484375 
Q 20.40625 52.09375 25.65625 54.046875 
Q 30.90625 56 36.8125 56 
Q 46.09375 56 51.578125 50.4375 
Q 57.078125 44.875 57.078125 35.5 
Q 57.078125 33.25 56.78125 30.6875 
Q 56.5 28.125 55.90625 25.203125 
z
" id="DejaVuSans-Oblique-65"/>
      <path d="M 16.796875 72.90625 
L 26.703125 72.90625 
L 14.203125 8.203125 
L 49.703125 8.203125 
L 48.09375 0 
L 2.6875 0 
z
" id="DejaVuSans-Oblique-4c"/>
     </defs>
     <g transform="translate(88.05 244.04)scale(0.1 -0.1)">
      <use transform="translate(0 0.51875)" xlink:href="#DejaVuSans-Oblique-79"/>
      <use transform="translate(63.645833 38.8)scale(0.7)" xlink:href="#DejaVuSans-Oblique-72"/>
      <use transform="translate(92.42513 38.8)scale(0.7)" xlink:href="#DejaVuSans-Oblique-65"/>
      <use transform="translate(59.179688 -26.825)scale(0.7)" xlink:href="#DejaVuSans-Oblique-4c"/>
      <use transform="translate(98.178711 -26.825)scale(0.7)" xlink:href="#DejaVuSans-32"/>
     </g>
    </g>
    <g id="patch_30">
     <path d="M 60.05 260.84 
L 80.05 260.84 
L 80.05 253.84 
L 60.05 253.84 
z
" style="fill:#90ee90;stroke:#90ee90;stroke-linejoin:miter;"/>
    </g>
    <g id="text_17">
     <!-- $y^{FF}$ -->
     <defs>
      <path d="M 16.890625 72.90625 
L 58.6875 72.90625 
L 57.078125 64.59375 
L 25.09375 64.59375 
L 20.90625 43.109375 
L 49.8125 43.109375 
L 48.1875 34.8125 
L 19.28125 34.8125 
L 12.5 0 
L 2.6875 0 
z
" id="DejaVuSans-Oblique-46"/>
     </defs>
     <g transform="translate(88.05 260.84)scale(0.1 -0.1)">
      <use transform="translate(0 0.684375)" xlink:href="#DejaVuSans-Oblique-79"/>
      <use transform="translate(63.645833 38.965625)scale(0.7)" xlink:href="#DejaVuSans-Oblique-46"/>
      <use transform="translate(103.909505 38.965625)scale(0.7)" xlink:href="#DejaVuSans-Oblique-46"/>
     </g>
    </g>
    <g id="patch_31">
     <path d="M 60.05 275.74 
L 80.05 275.74 
L 80.05 268.74 
L 60.05 268.74 
z
" style="fill:#d2b48c;stroke:#d2b48c;stroke-linejoin:miter;"/>
    </g>
    <g id="text_18">
     <!-- $y^{re}_{L1}$ -->
     <g transform="translate(88.05 275.74)scale(0.1 -0.1)">
      <use transform="translate(0 0.51875)" xlink:href="#DejaVuSans-Oblique-79"/>
      <use transform="translate(63.645833 38.8)scale(0.7)" xlink:href="#DejaVuSans-Oblique-72"/>
      <use transform="translate(92.42513 38.8)scale(0.7)" xlink:href="#DejaVuSans-Oblique-65"/>
      <use transform="translate(59.179688 -26.825)scale(0.7)" xlink:href="#DejaVuSans-Oblique-4c"/>
      <use transform="translate(98.178711 -26.825)scale(0.7)" xlink:href="#DejaVuSans-31"/>
     </g>
    </g>
    <g id="patch_32">
     <path d="M 60.05 292.54 
L 80.05 292.54 
L 80.05 285.54 
L 60.05 285.54 
z
" style="fill:#ff0000;stroke:#ff0000;stroke-linejoin:miter;"/>
    </g>
    <g id="text_19">
     <!-- $y^{NLDA}$ -->
     <defs>
      <path d="M 16.890625 72.90625 
L 30.171875 72.90625 
L 50.296875 10.40625 
L 62.5 72.90625 
L 72.125 72.90625 
L 57.90625 0 
L 44.578125 0 
L 24.515625 62.890625 
L 12.3125 0 
L 2.6875 0 
z
" id="DejaVuSans-Oblique-4e"/>
      <path d="M 16.890625 72.90625 
L 38.09375 72.90625 
Q 54.984375 72.90625 63.59375 65.75 
Q 72.21875 58.59375 72.21875 44.484375 
Q 72.21875 35.15625 68.9375 26.53125 
Q 65.671875 17.921875 59.90625 12.015625 
Q 54.109375 5.953125 45.171875 2.96875 
Q 36.234375 0 24.03125 0 
L 2.6875 0 
z
M 25.203125 64.796875 
L 14.203125 8.109375 
L 27.09375 8.109375 
Q 43.65625 8.109375 52.734375 17.625 
Q 61.8125 27.15625 61.8125 44.484375 
Q 61.8125 54.984375 55.953125 59.890625 
Q 50.09375 64.796875 37.59375 64.796875 
z
" id="DejaVuSans-Oblique-44"/>
      <path d="M 36.8125 72.90625 
L 48 72.90625 
L 61.53125 0 
L 51.21875 0 
L 48.1875 18.703125 
L 15.375 18.703125 
L 5.078125 0 
L -5.328125 0 
z
M 40.375 63.1875 
L 19.921875 26.90625 
L 46.6875 26.90625 
z
" id="DejaVuSans-Oblique-41"/>
     </defs>
     <g transform="translate(88.05 292.54)scale(0.1 -0.1)">
      <use transform="translate(0 0.684375)" xlink:href="#DejaVuSans-Oblique-79"/>
      <use transform="translate(63.645833 38.965625)scale(0.7)" xlink:href="#DejaVuSans-Oblique-4e"/>
      <use transform="translate(116.009115 38.965625)scale(0.7)" xlink:href="#DejaVuSans-Oblique-4c"/>
      <use transform="translate(155.008138 38.965625)scale(0.7)" xlink:href="#DejaVuSans-Oblique-44"/>
      <use transform="translate(208.909505 38.965625)scale(0.7)" xlink:href="#DejaVuSans-Oblique-41"/>
     </g>
    </g>
   </g>
  </g>
 </g>
 <defs>
  <clipPath id="p7d56e45abb">
   <rect height="290.32" width="396.43" x="51.05" y="13.32"/>
  </clipPath>
 </defs>
</svg>
